<svg width="1089" height="611" viewBox="0 0 1089 611" fill="none" xmlns="http://www.w3.org/2000/svg">
<g clip-path="url(#clip0_47_2)">
<path d="M999.737 73.4518C871.607 -112.378 600.938 -187.759 334.744 -106.572C194.015 -63.6512 58.3261 22.3476 -8.91789 188.869C-129.124 486.544 123.264 581.614 288.297 611.914C368.099 626.565 443.258 651.176 511.94 684.684C635.504 744.969 854.22 798.387 1019.15 547.275C1138.69 365.269 1085.08 197.233 999.737 73.4518Z" fill="#F2F2F2"/>
<path d="M256.881 110.217C256.523 107.264 255.798 104.372 254.725 101.613C254.588 101.091 254.348 100.605 254.021 100.185C253.694 99.7651 253.287 99.4208 252.825 99.1741C252.208 99.0068 251.56 98.9993 250.94 99.1521L241.261 100.696C240.451 100.734 239.675 101.048 239.053 101.59C237.792 102.972 239.034 105.196 238.995 107.103C238.952 109.246 237.124 110.986 235.143 111.562C233.12 111.988 231.034 111.961 229.022 111.482L215.488 109.291C219.474 107.964 223.022 105.497 225.726 102.17C227.507 99.971 228.455 95.8657 225.881 94.8244C225.116 94.6056 224.319 94.5389 223.53 94.6277C217.399 94.6773 212.574 89.3417 206.834 87.0944C203.16 85.7491 199.172 85.649 195.44 86.8085C191.708 87.9679 188.424 90.3275 186.057 93.5498L193.266 93.9121C193.944 93.8731 194.617 94.06 195.186 94.4459C196.766 95.7988 194.802 98.3976 195.025 100.516C195.314 103.269 198.82 103.856 201.464 104.135C204.107 104.413 207.46 106.651 206.189 109.083C192.903 113.852 179.384 99.7594 165.431 101.494C161.9 101.933 158.566 103.379 155.118 104.288C134.057 109.842 112.283 95.0238 90.7682 98.1621C85.9852 99.0119 81.2842 100.304 76.7212 102.023C73.7929 103.025 70.7386 104.108 68.6109 106.432C66.4833 108.756 65.6736 112.731 67.6892 115.161C62.1336 115.638 56.541 115.084 51.1711 113.524C52.6232 114.366 53.8313 115.599 54.6684 117.094C55.5055 118.59 55.9409 120.293 55.9288 122.025C47.2545 123.499 38.8099 126.183 30.8221 130.003C32.3129 132.587 34.0542 135.005 36.0186 137.218L25.0371 144.571C28.7472 145.545 30.6654 150.818 28.5078 154.111C32.3548 152.328 34.7389 147.713 38.8525 146.778C41.5475 146.165 44.2897 147.314 46.8463 148.393C49.4029 149.473 52.2129 150.519 54.8595 149.709C57.5061 148.899 59.4582 145.322 57.7765 143.044C69.0888 139.604 80.7799 137.7 92.5599 137.38C93.4688 137.261 94.3904 137.443 95.1943 137.901C96.7277 139.01 96.3243 141.405 96.2417 143.348C96.1591 145.291 97.6123 147.845 99.2787 146.969C97.3181 148.741 98.9942 152.077 100.875 153.94C102.756 155.804 105.023 158.375 103.872 160.798C103.571 161.431 103.061 161.937 102.772 162.575C101.919 164.46 103.274 166.656 104.872 167.907C106.471 169.159 108.429 170.033 109.54 171.766C110.65 173.498 110.146 176.531 108.16 176.773L102.516 169.305C100.588 171.388 99.2659 173.999 98.7035 176.835C104.688 181.934 105.589 192.313 100.578 198.448C98.0176 201.583 94.3764 203.488 91.1984 205.934C88.0204 208.379 85.0797 211.862 85.0877 215.979C85.1015 223.092 84.5438 229.7 87.1012 236.295C91.8172 248.455 97.2618 260.295 103.403 271.743C105.016 274.749 107.1 278.044 110.367 278.561C106.238 268.085 102.521 257.446 99.2167 246.644C101.369 246.653 103.857 246.831 105.118 248.648C106.163 250.153 105.939 252.2 106.263 254.026C106.676 255.796 107.365 257.483 108.302 259.021L128.018 295.625C129.653 298.66 131.528 301.917 134.652 303.146C136.649 303.932 138.96 303.784 140.798 304.915C142.239 305.801 143.209 307.375 144.678 308.21C148.831 310.572 154.607 306.043 158.489 308.862C159.599 309.669 160.305 310.949 161.327 311.872C164.912 315.108 170.793 312.943 174.931 315.357C177.598 316.913 178.98 320.024 180.403 322.843C183.966 329.905 189.732 336.824 197.369 337.386C199.768 337.563 202.218 337.089 204.563 337.645C206.908 338.201 209.216 340.334 208.84 342.809C208.194 347.053 210.206 351.7 209.666 355.96C208.682 363.72 198.121 367.13 197.214 374.899C197.016 376.601 197.327 378.357 196.938 380.022C196.462 382.063 194.991 383.724 194.469 385.753C193.478 389.597 196.121 393.423 199.024 396.009C201.927 398.595 205.39 400.825 206.977 404.446C208.654 408.272 207.83 412.734 208.376 416.903C209.567 426.003 217.108 432.75 224.87 437.099C227.235 438.425 229.774 439.708 231.304 442.007C233.302 445.008 233.103 448.964 233.77 452.55C235.404 461.331 242.497 468.567 242.698 477.51C242.841 483.866 239.451 489.632 237.426 495.629C235.528 501.375 234.841 507.481 235.412 513.529C235.983 519.577 237.8 525.425 240.737 530.675C242.252 533.341 244.064 535.855 245.135 538.745C247.048 543.902 246.427 549.765 248.19 554.98C250.521 561.875 256.927 567.569 256.314 574.852C259.222 581.146 265.643 584.238 272.101 586.112L283.673 589.469C285.889 590.112 288.205 590.76 290.461 590.294C292.717 589.829 294.871 587.876 294.813 585.48C289.137 584.146 283.28 582.727 278.602 579.123C273.924 575.519 270.719 569.1 272.494 563.326C273.317 560.649 275.068 557.557 273.404 555.344C272.45 554.078 270.708 553.747 269.632 552.591C267.956 550.788 268.532 547.76 269.737 545.586C270.943 543.412 272.685 541.47 273.171 539.01C273.417 537.635 273.253 536.214 272.701 534.938C272.15 533.662 271.237 532.592 270.086 531.873C272.232 531.028 274.183 529.723 275.814 528.042C277.32 526.249 278.016 523.485 276.831 521.447C280.35 521.912 284.505 522.14 286.814 519.334C288.659 517.094 288.532 513.745 287.804 510.892C287.075 508.039 285.843 505.268 285.804 502.316C293.922 502.717 302.057 502.43 310.13 501.457C308.963 497.359 306.31 493.896 302.734 491.803C306.39 491.158 309.721 486.596 310.876 482.924C312.031 479.251 311.737 475.251 311.023 471.459C310.749 470.482 310.711 469.45 310.913 468.455C311.325 467.088 312.614 466.253 313.806 465.539L331.954 454.677C333.037 454.111 334.019 453.356 334.856 452.444C336.758 450.116 336.476 446.602 335.502 443.719C334.529 440.835 332.969 438.123 332.594 435.091C331.473 426.024 340.786 419.518 343.929 410.982C345.163 407.632 345.414 403.991 345.653 400.412C345.909 396.568 345.928 392.103 343.096 389.625C340.381 387.251 336.139 387.78 333.299 385.571C330.694 383.546 329.796 379.613 326.95 377.977C324.366 376.492 321.127 377.437 318.253 376.738C313.193 375.508 310.009 369.43 304.841 368.867C301.926 368.549 298.626 370.035 296.236 368.265C294.13 366.706 294.046 363.572 293.645 360.912C292.943 356.779 291.042 352.969 288.198 349.996C285.355 347.023 281.706 345.029 277.742 344.284C274.736 343.781 271.464 343.972 268.906 342.25C266.317 340.507 265.129 337.243 263.095 334.828C259.817 330.937 254.653 329.554 249.816 328.369L230.142 323.548C226.649 322.693 222.148 322.239 220.273 325.428C219.718 326.642 219.326 327.929 219.106 329.254C218.404 331.651 216.99 333.754 215.069 335.262C213.148 336.769 210.818 337.602 208.413 337.642C206.764 334.711 204.093 332.557 200.957 331.629C198.962 331.05 196.826 330.985 194.923 330.133C193.887 329.605 192.965 328.863 192.214 327.952C191.462 327.041 190.897 325.979 190.553 324.832C190.208 323.685 190.092 322.477 190.212 321.281C190.331 320.086 190.683 318.929 191.246 317.88C192.381 315.775 192.819 313.34 192.493 310.949C192.167 308.559 191.095 306.347 189.444 304.655C186.098 301.524 181.258 300.768 176.772 301.081C175.596 298.409 177.561 295.394 179.678 293.452C181.795 291.51 184.366 289.601 184.827 286.701C185.553 282.14 179.968 278.675 175.728 280.035C171.488 281.396 168.782 285.688 166.993 289.919C165.967 292.347 165.094 294.903 163.475 296.95C161.856 298.997 159.249 300.463 156.783 299.806C153.291 298.876 151.943 294.553 151.17 290.884C150.134 285.962 149.091 280.972 149.308 275.938C149.525 270.905 151.154 265.736 154.715 262.328C160.519 256.775 169.422 257.319 177.254 258.205C175.404 256.032 175.861 252.37 177.841 250.325C178.886 249.357 180.142 248.669 181.5 248.322C182.858 247.974 184.276 247.977 185.633 248.33C187.993 248.842 190.119 250.167 191.669 252.091C193.895 254.919 194.528 258.738 196.21 261.949C197.893 265.159 201.675 267.897 204.772 266.175C207.446 264.687 207.871 260.822 207.205 257.74C206.539 254.657 205.126 251.66 205.367 248.51C205.827 242.501 211.804 238.883 217.079 236.408C222.353 233.933 228.393 230.605 229.228 224.639C229.257 223.471 229.468 222.316 229.854 221.219C230.439 220.25 231.252 219.453 232.216 218.904C247.609 208.301 263.259 197.569 280.853 191.775C281.769 191.474 281.876 191.809 282.809 191.573C284.115 190.786 283.25 188.611 281.998 187.734C280.746 186.858 279.073 186.186 278.755 184.649C278.522 183.52 279.16 182.411 279.326 181.269C279.734 178.462 276.512 175.87 274.01 176.992C272.597 175.042 275.393 172.775 277.654 172.126C284.444 170.178 291.415 168.992 298.446 168.586C299.258 168.452 300.089 168.599 300.812 169.005C301.993 169.858 301.842 171.814 301.005 173.031C300.168 174.248 298.866 175.012 297.823 176.042C296.684 177.199 295.871 178.66 295.474 180.266C295.076 181.871 295.11 183.56 295.57 185.147C299.241 187.093 303.232 189.096 307.298 188.411C311.364 187.725 314.972 182.964 313.061 179.162C311.282 175.621 305.936 174.822 305.017 170.941C303.941 166.397 310.112 162.356 308.722 157.906C308.113 155.956 306.249 154.809 304.819 153.402C303.129 151.676 301.98 149.459 301.522 147.04C301.065 144.622 301.319 142.115 302.253 139.85C299.923 140.277 297.529 140.116 295.271 139.38C293.014 138.643 290.959 137.354 289.278 135.619C286.175 132.354 283.699 127.205 279.292 127.351C275.248 127.485 271.765 132.402 267.983 130.902C267.053 130.533 266.072 129.782 265.171 130.222C264.875 130.422 264.627 130.689 264.446 131.004C264.264 131.318 264.153 131.671 264.122 132.037C263.161 136.825 264.814 142.281 262.31 146.419C259.585 150.922 253.282 151.546 249.979 155.606C248.186 157.81 247.491 160.78 245.843 163.104C244.195 165.428 240.696 166.905 238.718 164.88C239.69 162.797 239.956 160.432 239.471 158.172C238.987 155.911 237.781 153.889 236.051 152.435C234.214 151.186 232.235 150.183 230.158 149.448C227.838 148.424 225.631 147.142 223.576 145.624C222.546 144.977 221.709 144.044 221.159 142.929C220.724 141.534 220.782 140.022 221.324 138.667C222.327 135.67 224.097 133.016 226.442 130.99C228.786 128.964 231.618 127.645 234.629 127.174C237.263 126.8 240.328 126.932 242.071 124.84C242.993 123.734 243.477 122.061 244.816 121.611C245.672 121.432 246.561 121.546 247.35 121.937L257.18 125.543C258.277 126.059 259.484 126.267 260.682 126.146C261.276 126.063 261.817 125.749 262.198 125.266C262.579 124.784 262.771 124.169 262.735 123.546C262.421 121.845 259.909 121.028 260.137 119.312C260.265 118.756 260.552 118.253 260.96 117.871C264.508 113.935 268.846 110.866 273.665 108.883C278.484 106.899 283.664 106.051 288.834 106.398C290.075 108.522 288.112 111.037 286.48 112.85C284.847 114.663 283.535 117.903 285.509 119.298C286.319 119.729 287.219 119.94 288.127 119.913C290.547 120.254 292.899 120.998 295.093 122.115C298.49 123.656 301.822 125.341 305.088 127.172C304.8 124.927 304.524 122.563 305.341 120.464C306.157 118.365 308.477 116.719 310.504 117.536C312.457 118.324 313.458 121.019 315.539 121.266C318.315 121.595 319.41 117.322 318.25 114.673C317.091 112.024 314.796 109.806 314.604 106.901C314.475 104.942 315.19 102.511 313.689 101.325C313.154 100.968 312.547 100.747 311.917 100.677L274.417 93.485C272.19 93.0579 268.973 93.3853 268.874 95.7429C268.819 97.0589 269.947 98.3608 269.447 99.5708C268.914 100.862 267.162 100.744 265.887 101.201C263.907 101.91 262.914 104.359 263.104 106.532C263.452 108.69 264.254 110.742 265.453 112.539C263.014 111.476 259.32 111.281 256.881 110.217Z" fill="#3F3D56"/>
<path d="M226.96 77.04C224.595 76.2244 222.047 76.1864 219.661 76.9312C217.275 77.676 215.166 79.1675 213.621 81.2036C213.004 82.0509 212.485 83.219 213.002 84.1365C213.743 85.4518 215.631 84.9323 217.024 84.4618C219.07 83.6998 221.297 83.6444 223.376 84.3038C224.683 84.7716 225.853 85.5984 227.166 86.0485C227.805 86.3271 228.505 86.4192 229.19 86.3148C229.876 86.2104 230.521 85.9134 231.057 85.4558C231.958 84.498 232.015 83.0088 232.016 81.6673C232.079 81.2185 232.044 80.7607 231.916 80.3275C231.787 79.8943 231.567 79.4965 231.271 79.1632C230.746 78.8459 230.155 78.6638 229.549 78.6321C228.19 78.37 226.962 77.6221 226.076 76.5172" fill="#3F3D56"/>
<path d="M240.482 73.1162C239.952 73.0862 239.425 73.1985 238.949 73.4425C238.474 73.6865 238.067 74.0538 237.767 74.5093C237.467 74.9647 237.284 75.4929 237.237 76.043C237.19 76.5932 237.279 77.1468 237.496 77.6506C239.121 78.1125 240.819 78.2279 242.488 77.9898C243.321 77.8551 244.096 77.4666 244.717 76.8733C245.338 76.2799 245.777 75.5083 245.977 74.6556C244.012 75.0283 241.985 74.6247 240.29 73.5235" fill="#3F3D56"/>
<path d="M285.849 66.5632C281.425 67.5433 277.128 69.0647 273.047 71.0955C274.971 71.8662 276.607 73.2607 277.713 75.0734C278.819 76.8861 279.337 79.0212 279.19 81.1639C279.018 81.9865 279.038 82.8404 279.249 83.6533C279.719 84.8412 281.081 85.287 282.279 85.5919C284.431 86.2744 286.678 86.5733 288.925 86.476C290.049 86.4147 291.141 86.0622 292.102 85.4504C293.062 84.8386 293.861 83.9869 294.426 82.9722C294.752 82.0092 295.134 81.0679 295.571 80.1536C298.441 75.5965 306.97 81.1067 310.053 76.7022C311.138 75.1507 311.039 72.8152 312.455 71.5858C313.187 71.0502 314.035 70.7127 314.924 70.6037C321.123 69.3201 327.384 68.3907 333.68 67.8196C336.663 67.549 340.552 66.4326 340.576 63.3117C329.34 61.0117 317.689 62.6453 307.435 67.9585C303.741 69.887 298.855 73.9438 295.296 71.387C293.964 70.4297 294.029 67.8519 292.196 66.7754C290.321 65.6749 287.839 66.1225 285.849 66.5632Z" fill="#3F3D56"/>
<path d="M322.595 73.7252L327.87 74.7815C326.899 74.7367 325.93 74.9082 325.028 75.2846C324.125 75.6609 323.311 76.2335 322.637 76.9641C321.964 77.6948 321.448 78.5666 321.124 79.5215C320.8 80.4764 320.675 81.4923 320.757 82.5016C325.696 84.2214 331.082 82.5479 336.285 82.7765C341.488 83.0051 347.542 86.8788 346.654 92.227C346.385 93.8442 345.489 95.4602 345.955 97.0278C346.282 98.1266 347.211 98.9062 347.736 99.9181C348.83 102.027 347.956 104.694 346.575 106.611C345.194 108.528 343.338 110.057 342.126 112.094C339.111 117.161 340.824 123.711 342.62 129.371C343.139 131.51 344.098 133.506 345.43 135.22C348.09 138.168 352.426 138.425 356.309 138.484C359.135 138.527 362.372 138.381 364.159 136.099C366.493 133.12 364.861 128.471 366.397 124.974C367.792 121.799 371.347 120.436 374.567 119.47C380.467 117.7 386.48 116.195 392.058 113.521C398.984 110.201 405.457 105.026 413.069 104.599C415.205 104.479 417.394 104.742 419.451 104.132C421.508 103.522 423.462 101.668 423.307 99.4448C423.173 97.5452 421.631 96.1503 420.427 94.7183C419.222 93.2863 418.275 91.0843 419.383 89.5693L439.337 85.6848C437.922 81.6674 436.82 76.3763 440.07 73.7613C441.243 72.8178 442.813 72.4407 443.812 71.3001C445.513 69.356 444.658 66.0071 442.693 64.3537C440.729 62.7004 438.073 62.3165 435.556 62.0987C426.807 61.3414 418.008 61.8418 409.242 62.3426C392.106 63.3216 374.97 64.3006 357.833 65.2795C354.384 65.4766 350.401 65.1755 347.237 66.4021C344.559 67.4405 342.654 69.3467 339.591 70.0164C333.936 71.2528 327.713 70.4161 322.595 73.7252Z" fill="#3F3D56"/>
<path d="M417.088 117.178C416.551 117.09 416.001 117.22 415.553 117.541C415.257 117.881 415.08 118.317 415.053 118.775C414.713 120.799 415.118 122.882 416.189 124.608C416.734 125.454 417.487 126.133 418.369 126.574C419.251 127.014 420.23 127.201 421.205 127.114C423.58 126.798 425.33 124.687 427.514 123.656C430.879 122.069 445.171 119.596 435.284 114.029C431.877 112.11 429.676 113.804 426.991 115.067C423.935 116.696 420.512 117.426 417.088 117.178Z" fill="#3F3D56"/>
<path d="M503.68 70.5826C502.526 71.0741 501.56 71.9503 500.934 73.0742C500.645 73.6449 500.578 74.3094 500.747 74.9301C500.915 75.5509 501.306 76.0804 501.839 76.4092C502.27 76.5722 502.727 76.6477 503.185 76.6319L507.879 76.778C509.873 76.8401 512.364 77.2827 512.9 79.2855C513.298 80.7727 512.407 82.6836 513.482 83.7464C513.943 84.1186 514.497 84.344 515.078 84.3955C516.625 84.8095 518.239 84.8638 519.808 84.5546C523.223 83.5998 521.429 81.4273 522.504 79.4928C524.15 76.533 523.865 78.3247 526.765 76.6284C528.907 75.3756 531.674 73.1031 529.887 69.9101C526.778 64.3576 508.267 68.1973 503.68 70.5826Z" fill="#3F3D56"/>
<path d="M596.326 67.791L593.601 68.1701C587.454 69.025 581.273 69.8877 575.354 71.8113C577.916 72.8673 580.604 73.5548 583.345 73.8551C584.853 73.9321 586.352 74.1542 587.821 74.5183C590.436 75.3295 593.07 77.4244 595.597 76.3513C597.163 75.6859 597.674 73.9862 598.971 73.0854C599.867 72.4634 603.265 71.4567 603.645 70.8289C606.716 65.7535 598.687 67.4627 596.326 67.791Z" fill="#3F3D56"/>
<path d="M608.294 80.7021C604.654 82.8239 601.276 85.4021 598.236 88.3793C596.955 89.634 595.647 91.1945 595.764 93.0223C595.918 95.4517 598.401 96.8609 600.552 97.8101L609.265 101.655C610.322 100.102 609.355 97.9587 608.262 96.4328C607.17 94.9069 605.872 93.1415 606.354 91.3053C606.905 89.2098 609.357 88.4958 611.412 88.1348C614.762 87.5466 623.796 87.5938 622.711 81.9681C621.432 75.3393 611.657 78.7435 608.294 80.7021Z" fill="#3F3D56"/>
<path d="M606.542 455.829C605.713 458.332 605.634 461.28 607.069 463.466C608.679 465.918 611.901 466.832 614.689 466.21C617.465 465.44 619.94 463.782 621.764 461.469C623.432 459.531 624.805 457.338 625.833 454.965C627.269 451.268 628.281 447.407 628.849 443.463L631.555 428.659C632.159 425.35 632.136 415.207 626.301 418.512C624.707 419.414 621.017 426.543 619.346 428.564C616.336 432.208 615.937 435.743 614.353 440.156C612.367 445.685 608.378 450.292 606.542 455.829Z" fill="#3F3D56"/>
<path d="M914.707 531.586C912.798 530.81 910.945 529.891 909.163 528.836C907.376 533.956 906.426 539.353 906.353 544.801L919.417 537.096C921.382 535.937 923.609 534.326 923.567 531.973C923.585 531.683 923.527 531.392 923.4 531.133C923.273 530.874 923.081 530.655 922.845 530.5C922.554 530.378 922.238 530.34 921.929 530.388C919.992 530.556 918.225 531.549 916.398 532.24C914.571 532.931 912.434 533.296 910.757 532.271" fill="#3F3D56"/>
<path d="M983.623 536.161C982.189 536.568 980.789 537.091 979.434 537.728C976.436 539.318 974.396 542.337 971.699 544.431C969.117 546.435 966.009 547.535 962.958 548.605C962.061 549.432 962.473 551.097 963.447 551.823C964.495 552.444 965.696 552.726 966.898 552.631C970.067 552.704 973.406 552.736 976.183 551.141C977.747 550.083 979.211 548.872 980.554 547.524C983.8 544.702 987.698 542.839 991.557 541.04C992.961 540.487 994.26 539.678 995.392 538.65C997.816 536.16 997.987 532.319 994.491 531.472C991.666 530.787 986.313 535.254 983.623 536.161Z" fill="#3F3D56"/>
<path d="M1014.07 515.43C1014.23 513.717 1014.01 511.989 1013.43 510.377C1012.86 508.765 1011.93 507.31 1010.74 506.124C1010.7 509.551 1010.6 513.203 1008.75 516.037C1007.44 518.057 1005.37 519.421 1003.93 521.345C1002.48 523.269 1001.84 526.318 1003.53 528.006C1004.62 528.864 1005.94 529.338 1007.3 529.356C1010.67 529.77 1014.57 530 1016.93 527.462C1018.22 526.076 1018.85 524.024 1020.43 523.005C1021.01 522.749 1021.54 522.358 1021.96 521.862C1022.61 520.786 1021.58 519.366 1020.41 518.978C1019.25 518.59 1017.97 518.773 1016.8 518.404C1015.63 518.036 1014.56 516.667 1015.16 515.558" fill="#3F3D56"/>
<path d="M959.954 389.759C958.185 390.208 956.353 390.32 954.546 390.092C951.545 389.517 949.209 387.159 946.786 385.226C941.026 380.655 934.023 378.105 926.785 377.942C920.201 377.813 913.555 379.672 907.088 378.375C907.51 380.824 909.521 382.661 911.667 383.753C913.813 384.845 916.181 385.394 918.336 386.464C921.789 388.194 924.528 391.163 926.05 394.828C926.744 396.517 927.181 398.355 928.233 399.83C930.383 402.845 934.457 403.507 938.054 403.26C942.742 402.939 947.639 401.533 952.001 403.354C955.338 404.747 957.727 407.791 960.513 410.158C963.299 412.525 967.223 414.281 970.423 412.574C967.1 411.452 964.207 409.253 962.168 406.297C960.129 403.342 959.049 399.784 959.087 396.144C962.225 396.444 971.263 396.328 970.776 390.771C970.364 386.062 962.648 389.251 959.954 389.759Z" fill="#3F3D56"/>
<path d="M918.905 428.076C919.462 424.892 922.509 422.079 921.56 418.997C920.904 416.865 918.532 415.812 916.385 415.76C914.237 415.707 912.128 416.374 909.98 416.437C908.583 416.359 907.182 416.38 905.787 416.499C901.524 417.229 898.897 421.885 894.88 423.541C892.438 424.548 889.694 424.355 887.153 425.051C881.387 426.631 877.738 432.31 873.708 436.889C867.195 444.254 858.71 449.411 849.352 451.692C846.074 452.484 842.549 452.99 839.943 455.209C836.492 458.148 835.643 463.186 834.875 467.762C832.754 480.398 829.512 492.801 825.191 504.813L838.883 506.635C841.486 506.981 844.184 507.32 846.692 506.516C848.515 505.8 850.241 504.841 851.828 503.665C857.926 499.719 864.751 497.151 871.862 496.128C875.447 495.615 879.206 495.521 882.571 496.91C885.936 498.299 888.823 501.449 889.105 505.21C890.56 504.738 892.11 504.687 893.591 505.062C895.072 505.438 896.427 506.225 897.512 507.341C899.656 509.618 901.06 512.539 901.525 515.692C901.886 517.644 902.247 519.983 903.985 520.802C905.403 521.471 907.03 520.751 908.581 520.622C913.845 520.183 918.214 526.58 923.388 525.478C928.937 524.297 930.299 515.635 935.713 513.9C938.822 512.904 943.183 514.115 944.672 511.101C945.984 508.444 943.366 505.378 943.636 502.403C943.969 498.74 948.114 497.185 951.31 495.622C962.329 490.234 967.558 474.777 962.218 463.378C959.055 456.624 952.83 451.307 951.681 443.887C950.796 438.178 952.955 431.521 949.463 427.028C947.687 424.742 944.679 423.48 943.622 420.752C942.956 419.035 943.224 417.087 942.865 415.274C942.507 413.46 940.989 411.563 939.271 412.033C934.283 413.398 932.691 429.458 930.02 433.36C925.961 439.292 917.626 435.384 918.905 428.076Z" fill="#3F3D56"/>
<path d="M826.705 395.827C825 395.329 823.139 394.838 821.505 395.55C819.872 396.262 818.918 398.762 820.229 400.002C830.484 399.585 840.803 399.172 850.971 400.623C862.686 402.296 874.28 406.438 886.047 405.22C879.325 403.153 872.493 401.501 865.585 400.271L854.066 397.978C850.976 397.303 847.853 396.8 844.712 396.471C838.14 395.906 833.166 397.716 826.705 395.827Z" fill="#3F3D56"/>
<path d="M836.971 358.601C836.12 358.527 835.066 358.463 834.625 359.226C834.204 359.955 834.686 360.918 834.46 361.736C834.15 362.852 832.747 363.138 831.642 362.986C830.536 362.834 829.341 362.47 828.361 363.025C827.864 363.379 827.491 363.891 827.297 364.484C827.103 365.078 827.099 365.721 827.286 366.317C827.686 367.5 828.334 368.577 829.182 369.467C830.631 371.37 832.281 373.095 834.102 374.611C837.627 377.322 842.402 378.629 844.622 382.565C844.935 383.328 845.416 384.004 846.027 384.536C847.093 385.24 848.483 384.705 849.63 384.158L853.652 382.243C854.376 381.971 855.023 381.512 855.532 380.91C856.451 379.61 855.887 377.763 855.115 376.363C854.344 374.963 853.357 373.514 853.522 371.909C853.818 369.047 857.348 367.953 858.8 365.504C860.263 363.036 859.31 359.856 859.479 356.96C859.676 353.574 861.718 349.168 858.433 346.638C855.641 344.487 852.972 346.474 850.968 348.849C846.741 353.855 844.742 359.278 836.971 358.601Z" fill="#3F3D56"/>
<path d="M861.386 307.999C862.759 310.739 865.622 312.374 867.119 315.043C868.742 317.935 868.557 321.673 870.318 324.476C872.125 327.353 875.76 328.88 876.773 332.152C877.879 335.724 875.37 340.065 877.37 343.186C877.743 343.696 878.214 344.12 878.752 344.431C879.291 344.741 879.885 344.932 880.498 344.991C881.111 345.049 881.729 344.975 882.312 344.772C882.896 344.568 883.433 344.241 883.889 343.81C884.733 342.853 885.184 341.591 885.147 340.292C885.11 338.993 884.588 337.76 883.692 336.857C882.507 335.731 880.807 335.245 879.818 333.93C879.303 333.172 878.96 332.301 878.814 331.384C878.275 328.739 878.362 325.997 879.066 323.395C879.331 322.734 879.398 322.006 879.259 321.305C878.814 319.956 877.061 319.861 875.831 319.235C873.038 317.814 873.106 313.705 873.594 310.506C873.269 312.636 865.989 309.013 865.227 307.807C863.713 305.41 864.537 300.787 864.237 298.138C860.968 299.78 859.707 304.648 861.386 307.999Z" fill="#3F3D56"/>
<path d="M788.047 350.16C786.704 348.593 784.68 346.953 782.878 347.898C781.504 348.619 781.126 350.601 781.665 352.103C782.321 353.563 783.331 354.818 784.596 355.745C788.35 358.972 792.392 361.885 795.667 365.636C801.528 372.348 804.633 381.406 811.006 387.59C812.288 389.024 813.984 389.98 815.836 390.314C817.693 390.494 819.779 389.255 819.992 387.324C820.168 385.734 819.104 384.31 818.064 383.131C815.588 380.325 812.878 377.741 810.54 374.808C809.461 373.681 808.782 372.205 808.617 370.622C808.605 369.042 809.987 367.39 811.455 367.781C809.669 367.305 808.345 364.205 805.725 363.622C803.535 363.135 803.005 364.548 800.399 363.383C795.428 361.161 791.528 354.222 788.047 350.16Z" fill="#3F3D56"/>
<path d="M904.845 197.514C903.42 197.072 902.018 196.55 900.646 195.95C896.955 194.796 892.072 197.623 892.564 201.606C892.891 204.253 895.254 206.037 896.559 208.333C898.495 211.737 897.979 216.055 896.962 219.868C896.712 221.048 896.237 222.164 895.565 223.15C894.626 224.19 893.503 225.032 892.258 225.629C887.274 228.542 882.879 232.434 879.315 237.09C878.928 237.52 878.658 238.05 878.533 238.625C878.357 239.97 879.654 240.95 880.388 242.072C882.017 244.563 880.839 247.916 881 250.927C880.976 251.352 881.056 251.778 881.233 252.162C881.41 252.546 881.678 252.877 882.012 253.123C882.994 253.643 884.158 252.76 884.69 251.755C886.456 248.421 885.126 243.068 888.439 241.46C889.065 241.156 889.825 241.028 890.243 240.454C890.906 239.544 890.266 238.196 890.602 237.108C891.107 235.475 893.251 235.401 894.896 235.474C897.73 235.597 900.562 235.204 903.266 234.312C904.327 234.049 905.291 233.468 906.037 232.64C907.028 231.352 906.94 229.52 906.742 227.882C905.751 219.717 903.269 211.825 899.431 204.633C902.342 205.02 905.508 205.356 908.019 203.775C909.425 202.89 911.112 200.243 910.414 198.441C909.311 195.592 907.319 197.99 904.845 197.514Z" fill="#3F3D56"/>
<path d="M531.756 242.42C532.104 244.367 532.446 246.417 531.834 248.292C531.222 250.167 529.296 251.733 527.478 251.159C526.067 250.713 525.252 249.234 524.25 248.106C518.677 241.836 506.104 245.466 502.661 237.709C501.256 234.543 502.211 230.75 501.253 227.408C500.648 225.476 499.445 223.809 497.833 222.667C496.22 221.525 494.289 220.974 492.344 221.1C490.569 221.367 488.842 221.905 487.217 222.695C476.333 227.238 464.906 230.217 453.251 231.549C451.036 231.69 448.845 232.106 446.724 232.787C441.938 234.595 438.669 239.22 436.342 243.938C434.015 248.657 432.297 253.765 429.177 257.958C425.898 262.363 421.303 265.449 417.017 268.786C415.366 269.895 413.991 271.397 413.006 273.168C412.077 275.156 412.129 277.468 412.201 279.678L413.077 306.522C413.19 309.975 413.331 313.551 414.814 316.641C416.666 320.499 420.323 323.026 422.861 326.435C425.45 329.938 426.799 334.265 426.679 338.685C426.625 340.462 426.456 342.564 427.784 343.68C428.591 344.226 429.537 344.51 430.499 344.494L465.339 347.466C471.468 347.989 478.26 348.849 482.261 353.715C484.149 356.012 485.666 359.315 488.559 359.561C489.8 359.667 491.007 359.136 492.248 359.034C495.378 358.775 498.129 361.252 499.865 363.98C502.492 368.137 503.684 373.103 503.246 378.06C502.962 381.172 502.036 384.197 501.836 387.316C501.077 399.184 510.73 409.495 510.917 421.387C511.027 428.383 507.841 434.919 504.735 441.121C509.748 449.037 505.643 459.578 507.639 468.832C509.532 477.611 516.556 484.484 518.306 493.296C519.107 497.33 519.154 502.295 522.567 504.372C524.064 505.133 525.725 505.48 527.388 505.379C537.42 505.502 547.338 503.149 556.33 498.511C560.551 496.328 564.925 493.07 565.662 488.22C566.256 484.309 564.353 479.934 566.29 476.527C568.572 472.512 574.42 472.83 577.778 469.743C583.227 464.735 578.978 455.183 581.186 447.97C583.17 441.486 590.001 438.041 593.387 432.221C594.719 429.718 595.675 427.017 596.222 424.212C597.773 417.508 598.739 410.672 599.107 403.786C599.197 399.602 599.493 395.427 599.993 391.275C603.644 367.637 626.065 351.809 633.345 329.101C634.04 326.932 634.366 324.043 632.515 322.816C631.417 322.27 630.173 322.135 628.99 322.432L612.93 324.542C610.935 324.804 608.82 325.049 606.988 324.186C605.156 323.322 603.843 320.907 604.815 319.072C607.543 313.922 601.932 307.415 599.439 302.137C592.725 287.927 584.731 274.414 575.563 261.781C574.976 261.131 574.609 260.299 574.516 259.412L579.074 259.57C577.536 253.816 574.996 247.519 569.632 245.414C566.61 244.228 563.263 244.638 560.038 244.821C550.801 245.347 540.898 243.894 531.756 242.42Z" fill="#3F3D56"/>
<path d="M560.045 112.745C562.462 115.42 565.171 118.256 568.668 118.723C574.845 119.546 579.286 112.889 582.114 107.106C582.219 108.58 582.871 109.954 583.932 110.934C584.994 111.915 586.38 112.426 587.797 112.357C589.322 112.09 590.777 111.497 592.072 110.616C604.31 103.645 618.019 99.9513 631.965 99.867C631.831 98.7659 632.094 97.6521 632.701 96.7405C633.309 95.8289 634.219 95.1842 635.255 94.9306C638.091 94.3447 640.645 96.8999 642.013 99.5542C643.381 102.208 644.234 105.285 646.407 107.272C648.581 109.258 652.788 109.172 653.647 106.295C654.471 103.533 651.71 101.177 649.416 99.5489C647.123 97.9205 644.705 94.9065 646.25 92.5033C657.968 89.7998 669.759 87.0861 681.75 86.5487C683.791 86.6228 685.825 86.2576 687.725 85.4758C689.554 84.5406 691.008 82.4175 690.516 80.3573C687.899 80.9984 685.159 80.8128 682.643 79.824C680.128 78.8353 677.953 77.0883 676.394 74.8058C693.032 73.3748 710.729 72.155 725.474 80.3147C727.244 84.2737 718.225 87.5675 720.638 91.1384C721.408 92.2772 722.95 92.4108 724.286 92.4366C734.533 92.6349 744.838 92.8293 754.969 91.217C758.672 90.6278 762.411 89.796 766.128 90.2738C772.32 91.0696 777.615 95.3751 783.706 96.7788C786.185 97.3502 788.965 97.3695 791.054 95.8667C793.144 94.3639 794.043 90.9419 792.33 88.9882C798.065 83.1301 807.583 84.582 815.149 87.3866C822.714 90.1912 829.882 94.714 837.89 95.3392C843.632 95.7875 849.454 94.1777 855.128 95.2009C858.693 95.8439 862.011 97.4971 865.496 98.5128C872.087 100.434 879.059 100.028 885.903 100.121C903.363 100.366 920.632 103.942 936.856 110.673C938.967 111.389 940.901 112.58 942.521 114.161C944.03 115.846 944.8 118.464 943.786 120.513L927.021 117.96C928.6 121.2 932.687 121.753 936.005 122.871C939.324 123.989 942.765 127.808 940.77 130.79C937.175 129.597 933.916 133.344 932.1 136.791C930.284 140.239 928.07 144.367 924.302 144.577C920.928 144.765 916.847 141.771 914.647 144.445C917.686 148.44 920.288 152.775 922.405 157.371C924.578 162.089 926.126 168.034 923.189 172.279C922.727 173.037 922.026 173.603 921.207 173.881C918.808 174.514 917.25 171.456 915.53 169.602C913.362 167.266 910.084 166.605 907.149 165.509C904.213 164.414 901.121 162.259 900.892 159.018C900.749 157.002 901.77 155.127 902.522 153.264C903.787 150.123 904.34 146.72 904.139 143.32C903.974 140.585 903.238 137.74 901.353 135.829C899.468 133.918 896.214 133.311 894.191 135.062C893.247 135.878 892.49 137.185 891.264 137.234C889.098 137.32 887.435 133.384 885.692 134.727C885.896 136.159 885.611 137.62 884.887 138.855C879.686 143.57 871.696 141.575 864.991 143.241C861.803 144.192 858.75 145.581 855.914 147.372C854.853 147.845 853.95 148.635 853.319 149.642C852.482 151.337 853.405 153.508 854.881 154.635C856.445 155.635 858.203 156.261 860.028 156.466C868.202 158.08 876.495 160.578 882.949 166.05C889.402 171.522 893.634 180.568 891.592 188.973L875.472 172.92C876.085 179.66 876.432 186.42 876.515 193.197C876.619 194.521 876.445 195.852 876.004 197.098C874.855 199.743 871.74 200.633 869.011 201.217C868.251 201.368 867.531 201.684 866.898 202.144C866.264 202.605 865.731 203.201 865.334 203.892C864.937 204.583 864.685 205.353 864.593 206.153C864.502 206.953 864.575 207.763 864.805 208.532C865.775 211.826 868.193 214.395 870.407 216.954C872.621 219.513 874.8 222.422 875.089 225.854C875.379 229.287 872.894 233.156 869.596 232.917C867.096 232.736 865.241 230.404 864.174 228.04C863.108 225.676 862.473 223.042 860.871 221.034C856.021 214.954 845.127 217.559 840.782 211.078C839.675 212.387 838.906 213.97 838.551 215.675C838.195 217.381 838.264 219.153 838.75 220.824C840.771 219.505 843.539 220.73 845.057 222.646C846.576 224.563 847.292 227.02 848.485 229.172C850.094 232.076 852.656 234.651 852.88 237.997C852.821 239.262 852.841 240.53 852.942 241.792C853.341 243.819 854.985 245.275 856.124 246.969C858.777 250.912 858.646 256.328 856.936 260.802C855.227 265.275 852.155 269.013 849.113 272.637C843.8 278.967 838.378 285.26 832.079 290.517C830.282 292.017 828.364 293.492 827.244 295.589C826.125 297.686 826.067 300.63 827.788 302.225C826.557 302.289 824.349 302.92 823.118 302.984C822.686 297.838 822.591 292.667 822.837 287.507C817.979 285.076 812.749 291.586 813.376 297.164C814.003 302.742 817.874 307.218 820.63 312.044C822.645 315.573 824.143 319.688 823.47 323.734C822.797 327.781 819.331 331.514 815.406 331.157C809.162 330.589 806.55 321.247 800.367 320.178C799.822 320.044 799.249 320.103 798.74 320.346C797.822 320.871 797.663 322.151 797.611 323.241C797.358 328.59 797.139 334.152 799.143 339.084C802.074 346.299 809.645 352.358 808.057 360.016C799.501 355.871 795.052 345.87 793.032 336.264C791.012 326.658 790.675 316.573 787.055 307.492C784.305 311.164 778.526 308.128 776.014 304.275C773.633 300.622 772.167 296.397 769.856 292.695C767.546 288.993 764.006 285.678 759.773 285.474C755.335 285.261 751.486 288.435 748.101 291.434C745.318 293.9 742.46 296.463 740.833 299.873C738.466 304.833 739.085 310.682 738.971 316.221C738.847 322.21 737.63 328.528 733.714 332.912C729.797 337.297 722.569 338.824 718.25 334.872C715.994 332.81 714.903 329.728 713.93 326.769C709.242 312.509 705.338 297.982 702.236 283.258C701.51 286.619 698.679 290.95 695.974 288.971C695.367 288.438 694.875 287.778 694.531 287.033C689.486 278.121 680.143 272.776 670.703 269.57C661.263 266.365 651.331 264.87 641.995 261.348C636.764 259.373 631.767 256.779 627.103 253.616C625.914 255.437 625.22 257.558 625.094 259.757C624.968 261.955 625.415 264.148 626.387 266.103C628.458 269.924 633.144 272.136 637.156 270.8C639.228 270.109 640.979 268.61 643.036 267.869C645.093 267.128 647.853 267.492 648.753 269.557C649.614 271.534 648.312 273.926 648.958 275.99C649.941 279.133 654.49 279.375 656.081 282.236C657.264 284.365 656.291 287.191 654.601 288.909C652.911 290.626 650.656 291.568 648.593 292.764C641.9 296.643 637.14 303.265 631.29 308.418C625.44 313.57 617.187 317.331 610.216 314.026C611.877 305.256 601.854 298.818 600.01 290.087C599.403 287.213 599.717 284.161 598.851 281.361C597.596 277.306 594.145 274.518 591.314 271.446C587.88 267.679 585.204 263.233 583.445 258.371C581.687 253.508 580.88 248.328 581.073 243.136C581.226 239.528 581.862 235.861 581.074 232.344C580.285 228.827 577.491 225.423 574.029 225.582C566.122 225.946 556.161 226.559 552.013 219.534C550.532 217.027 549.888 213.354 552.028 211.433C553.538 210.078 555.768 210.206 557.751 210.409L575.566 212.236C579.733 212.663 584.238 213.016 587.813 210.745C591.389 208.475 592.938 202.448 589.627 199.777C587.208 197.826 582.874 197.931 582.171 194.828C581.585 192.244 584.33 189.312 582.847 187.152C581.784 185.603 579.395 186.033 577.947 187.194C576.499 188.355 575.448 190.052 573.828 190.931C570.985 192.473 567.588 191.006 564.529 190.008C561.471 189.011 557.371 188.926 555.887 191.887C554.228 195.198 557.359 199.537 555.712 202.855C553.535 207.242 546.163 204.744 543.106 208.518C539.597 212.848 545.493 219.304 544.31 224.835C542.799 225.615 541.121 225.973 539.438 225.875C537.755 225.776 536.125 225.224 534.708 224.273C533.314 223.285 532.203 221.922 531.493 220.328C530.784 218.734 530.502 216.97 530.677 215.223C530.97 212.734 532.215 210.194 531.381 207.843C530.707 205.942 528.875 204.81 527.173 203.829L509.86 193.858C508.253 196.966 510.285 200.819 512.826 203.153C515.368 205.487 518.551 207.245 520.221 210.317C521.277 212.446 521.513 214.914 520.882 217.218C520.251 219.522 518.8 221.488 516.825 222.715C516.578 222.893 516.296 223.013 516 223.067C515.704 223.121 515.4 223.107 515.109 223.027C514.833 222.858 514.592 222.633 514.401 222.365C514.21 222.097 514.072 221.792 513.996 221.467C510.942 213.32 506.355 205.287 499.023 201.031C491.691 196.775 481.155 197.65 476.346 204.819C475.204 206.522 474.438 208.463 473.443 210.264C468.157 219.829 456.825 224.359 446.238 224.063C445.203 224.122 444.172 223.87 443.27 223.336C441.559 222.104 441.637 219.491 441.898 217.341L443.01 208.216C443.233 206.384 443.556 204.359 444.948 203.215C446.909 201.603 449.738 202.62 452.236 202.583C454.128 202.491 455.948 201.794 457.447 200.588C458.947 199.382 460.055 197.724 460.62 195.839C461.124 193.936 461.121 191.926 460.611 190.025C460.1 188.123 459.101 186.403 457.722 185.05C456.577 183.929 455.041 182.522 455.645 181.011C455.886 180.593 456.213 180.235 456.601 179.963C456.989 179.691 457.43 179.51 457.892 179.434C462.378 178.076 467.119 177.72 471.531 176.118C475.943 174.516 480.221 171.238 481.266 166.492C481.586 165.037 481.732 163.276 482.985 162.554C483.614 162.278 484.29 162.134 484.972 162.131C487.364 161.777 489.542 160.502 491.077 158.557C492.612 156.613 493.393 154.14 493.266 151.626C495.381 150.086 498.343 151.218 500.388 152.856C502.434 154.494 504.24 156.658 506.728 157.364C511.367 158.679 515.849 154.399 520.656 154.379C522.677 154.371 524.77 155.116 526.672 154.402C528.6 153.678 529.751 151.677 531.231 150.2C532.71 148.722 535.306 147.821 536.673 149.413L535.509 140.431C537.852 141.047 540.295 141.135 542.673 140.687C545.051 140.239 547.31 139.265 549.297 137.832L534.261 132.537C533.737 132.401 533.254 132.132 532.854 131.754C531.761 130.527 532.847 128.615 533.736 127.22C535.863 123.884 536.22 118.388 532.723 116.727C530.335 115.593 527.595 116.954 525.304 118.285L514.329 124.663C513.981 126.838 516.532 128.07 518.113 129.534C519.069 130.42 519.746 131.587 520.054 132.882C520.363 134.176 520.289 135.538 519.841 136.787C519.394 138.037 518.594 139.116 517.547 139.883C516.501 140.65 515.256 141.07 513.976 141.086C514.699 142.065 515.201 143.202 515.445 144.41C515.69 145.619 515.67 146.87 515.388 148.07L508.003 148.624C507.175 148.797 506.314 148.622 505.608 148.136C504.819 147.405 504.926 146.124 504.743 145.04C504.301 142.423 501.842 140.589 499.333 140.119C496.824 139.648 494.257 140.251 491.772 140.846C490.717 141.242 489.559 141.214 488.522 140.768C487.928 140.366 487.476 139.772 487.237 139.077C486.147 136.324 487.165 133.089 488.915 130.734C490.664 128.38 493.059 126.659 495.21 124.7C500.354 119.996 504.133 113.887 506.121 107.062C510.186 105.287 514.394 102.875 518.459 101.1C524.727 97.7927 531.755 96.3735 538.753 97.0017L552.52 97.2758C556.596 97.3569 560.782 97.4609 564.551 99.0804C568.32 100.7 571.631 104.203 571.891 108.443C571.97 108.923 571.93 109.416 571.776 109.875C571.621 110.335 571.357 110.746 571.009 111.07C570.476 111.373 569.874 111.515 569.268 111.479C565.467 111.618 563.846 112.605 560.045 112.745Z" fill="#3F3D56"/>
<path d="M450.317 157.712C450.855 157.182 451.242 156.507 451.436 155.762C451.63 155.017 451.623 154.231 451.416 153.49C450.107 152.963 448.683 152.828 447.305 153.099C445.926 153.371 444.648 154.038 443.613 155.025C442.798 155.885 442.095 156.853 441.523 157.905C439.714 160.981 438.114 164.655 439.162 168.094C439.248 168.469 439.404 168.822 439.623 169.133C439.841 169.444 440.116 169.707 440.433 169.906C440.903 170.102 441.41 170.185 441.915 170.147C443.908 170.145 445.899 170.017 447.877 169.765C449.091 169.61 450.502 169.253 450.972 168.075C451.589 166.526 450.095 164.774 450.531 163.16C450.817 162.438 451.251 161.79 451.803 161.261C452.076 160.995 452.287 160.666 452.417 160.3C452.547 159.934 452.594 159.542 452.553 159.154C452.377 158.397 451.265 157.967 450.864 158.625" fill="#3F3D56"/>
<path d="M460.651 143.749C458.88 143.325 457.056 143.206 455.248 143.395C454.849 143.383 454.452 143.477 454.097 143.668C453.753 143.932 453.503 144.309 453.388 144.739C453.006 146.015 453.1 147.395 453.651 148.603C454.201 149.811 455.168 150.759 456.359 151.257C457.008 151.413 457.63 151.673 458.202 152.029C459.73 153.264 458.756 155.79 459.045 157.783C459.37 160.021 461.448 161.899 461.067 164.128C460.767 165.883 458.968 167.273 459.257 169.031C459.561 170.871 461.802 171.424 463.588 171.572C464.624 171.761 465.689 171.633 466.657 171.205C467.626 170.514 468.316 169.473 468.592 168.283C469.324 166.015 469.631 163.621 469.498 161.231C469.49 160.145 469.228 159.076 468.735 158.119C468.197 157.36 467.601 156.649 466.952 155.991C463.529 151.842 467.133 145.653 460.651 143.749Z" fill="#3F3D56"/>
<path opacity="0.8" d="M910.702 468.784C910.702 468.784 648.573 311.962 535.723 341.675C535.723 341.675 296.56 368.5 268.842 427.515C268.842 427.515 192.817 179.901 165.1 171.647" stroke="#6C63FF" stroke-width="2" stroke-miterlimit="10"/>
<path opacity="0.8" d="M268.842 427.515C312.795 305.359 708.76 169.996 708.76 169.996C652.533 184.853 535.723 341.675 535.723 341.675C535.723 341.675 288.641 154.314 165.1 171.647C165.1 171.647 709.156 190.218 910.702 468.784" stroke="#6C63FF" stroke-width="2" stroke-miterlimit="10"/>
<path d="M165.1 183.615C171.442 183.615 176.583 178.257 176.583 171.647C176.583 165.037 171.442 159.679 165.1 159.679C158.758 159.679 153.617 165.037 153.617 171.647C153.617 178.257 158.758 183.615 165.1 183.615Z" fill="#63CAFF"/>
<path d="M268.842 439.483C275.184 439.483 280.325 434.125 280.325 427.515C280.325 420.905 275.184 415.547 268.842 415.547C262.5 415.547 257.359 420.905 257.359 427.515C257.359 434.125 262.5 439.483 268.842 439.483Z" fill="#63CAFF"/>
<path d="M708.759 181.964C715.101 181.964 720.242 176.606 720.242 169.996C720.242 163.386 715.101 158.028 708.759 158.028C702.417 158.028 697.276 163.386 697.276 169.996C697.276 176.606 702.417 181.964 708.759 181.964Z" fill="#63CAFF"/>
<path d="M910.702 480.752C917.044 480.752 922.185 475.394 922.185 468.784C922.185 462.174 917.044 456.816 910.702 456.816C904.36 456.816 899.219 462.174 899.219 468.784C899.219 475.394 904.36 480.752 910.702 480.752Z" fill="#63CAFF"/>
<path d="M535.723 353.643C542.065 353.643 547.206 348.285 547.206 341.675C547.206 335.066 542.065 329.707 535.723 329.707C529.381 329.707 524.24 335.066 524.24 341.675C524.24 348.285 529.381 353.643 535.723 353.643Z" fill="#63CAFF"/>
</g>
<defs>
<clipPath id="clip0_47_2">
<rect width="1089" height="611" fill="white"/>
</clipPath>
</defs>
</svg>
