<svg xmlns="http://www.w3.org/2000/svg" version="1.1" xmlns:xlink="http://www.w3.org/1999/xlink" viewBox="0 0 21.6742621593378 18.53053440116662"><g transform="matrix(1,0,0,1,1.6690453863095254,14.884676514857095)"><rect width="21.6742621593378" height="21.6742621593378" x="-1.6690453863095254" y="-16.45654039394268" fill="#bfbe5f"></rect><g clip-path="url(#SvgjsClipPath1001)"><path d=" M 0 -13.17269857514178 L 12.965631128547567 -13.17269857514178 L 12.965631128547567 -0.2929325534057856 L 0 -0.2929325534057856 Z" fill="#0e0904" transform="matrix(1,0,0,1,0,0)" fill-rule="nonzero" mask="url(#maskedMgText-64a62e23-b250-4723-b4e3-51d52058e8f6)"></path></g><g><path d=" M 0.8505 0.8235 L 0.8505 1.0785 L 0.0915 1.0785 L 0.0915 0.013500000000000068 L 0.837 0.013500000000000068 L 0.837 0.26849999999999996 L 0.384 0.26849999999999996 L 0.384 0.4185 L 0.771 0.4185 L 0.771 0.6555 L 0.384 0.6555 L 0.384 0.8235 L 0.8505 0.8235 M 1.283977294921875 0.555 L 1.283977294921875 1.0785 L 0.991477294921875 1.0785 L 0.991477294921875 0.013500000000000068 L 1.2194772949218748 0.013500000000000068 L 1.646977294921875 0.555 L 1.646977294921875 0.013500000000000068 L 1.939477294921875 0.013500000000000068 L 1.939477294921875 1.0785 L 1.706977294921875 1.0785 L 1.283977294921875 0.555 M 2.332519775390625 0.013500000000000068 L 2.541019775390625 0.741 L 2.7465197753906248 0.013500000000000068 L 3.054019775390625 0.013500000000000068 L 2.686519775390625 1.0785 L 2.3955197753906248 1.0785 L 2.023519775390625 0.013500000000000068 L 2.332519775390625 0.013500000000000068 M 3.1395153808593745 1.0785 L 3.1395153808593745 0.013500000000000068 L 3.4320153808593745 0.013500000000000068 L 3.4320153808593745 1.0785 L 3.1395153808593745 1.0785 M 3.6195402832031247 1.0785 L 3.6195402832031247 0.013500000000000068 L 4.108540283203125 0.013500000000000068 Q 4.186540283203125 0.013500000000000068 4.252540283203125 0.04499999999999993 Q 4.3185402832031246 0.07650000000000001 4.366540283203125 0.12975000000000003 Q 4.414540283203125 0.18299999999999994 4.440790283203125 0.249 Q 4.467040283203125 0.31499999999999995 4.467040283203125 0.38249999999999995 Q 4.467040283203125 0.44399999999999995 4.449040283203125 0.501 Q 4.431040283203124 0.558 4.396540283203125 0.6052500000000001 Q 4.362040283203124 0.6525000000000001 4.314040283203125 0.687 L 4.539040283203125 1.0785 L 4.218040283203125 1.0785 L 4.030540283203125 0.7515000000000001 L 3.9120402832031247 0.7515000000000001 L 3.9120402832031247 1.0785 L 3.6195402832031247 1.0785 M 3.9120402832031247 0.49650000000000005 L 4.096540283203125 0.49650000000000005 Q 4.114540283203125 0.49650000000000005 4.1310402832031246 0.483 Q 4.147540283203125 0.46950000000000003 4.158790283203125 0.44399999999999995 Q 4.170040283203125 0.4185 4.170040283203125 0.38249999999999995 Q 4.170040283203125 0.345 4.157290283203125 0.32025000000000003 Q 4.144540283203125 0.2955 4.125790283203125 0.28200000000000003 Q 4.1070402832031245 0.26849999999999996 4.089040283203125 0.26849999999999996 L 3.9120402832031247 0.26849999999999996 L 3.9120402832031247 0.49650000000000005 M 5.103063720703125 1.0875 Q 4.981563720703125 1.0875 4.882563720703125 1.04175 Q 4.783563720703125 0.996 4.712313720703125 0.91875 Q 4.641063720703125 0.8415 4.602813720703125 0.74475 Q 4.564563720703125 0.648 4.564563720703125 0.5445 Q 4.564563720703125 0.43800000000000006 4.605063720703125 0.34199999999999997 Q 4.645563720703125 0.246 4.718313720703125 0.17025 Q 4.791063720703125 0.09450000000000003 4.890813720703125 0.050999999999999934 Q 4.990563720703125 0.007500000000000062 5.109063720703125 0.007500000000000062 Q 5.230563720703125 0.007500000000000062 5.329563720703125 0.05325000000000002 Q 5.428563720703125 0.09899999999999998 5.499063720703125 0.17700000000000005 Q 5.569563720703125 0.255 5.607813720703125 0.35175 Q 5.6460637207031255 0.4485 5.6460637207031255 0.5505 Q 5.6460637207031255 0.6555 5.606313720703125 0.7515000000000001 Q 5.566563720703125 0.8475 5.493813720703125 0.92325 Q 5.421063720703125 0.999 5.322063720703125 1.04325 Q 5.223063720703125 1.0875 5.103063720703125 1.0875 M 4.861563720703125 0.5475 Q 4.861563720703125 0.6014999999999999 4.876563720703125 0.65175 Q 4.891563720703125 0.702 4.921563720703125 0.74175 Q 4.951563720703125 0.7815000000000001 4.997313720703125 0.8047500000000001 Q 5.043063720703125 0.8280000000000001 5.1060637207031245 0.8280000000000001 Q 5.169063720703125 0.8280000000000001 5.215563720703125 0.804 Q 5.262063720703125 0.78 5.291313720703125 0.73875 Q 5.320563720703125 0.6975 5.334813720703125 0.64725 Q 5.349063720703125 0.597 5.349063720703125 0.5445 Q 5.349063720703125 0.49050000000000005 5.334063720703125 0.44099999999999995 Q 5.319063720703125 0.39149999999999996 5.289063720703125 0.35175 Q 5.259063720703125 0.31199999999999994 5.212563720703125 0.2895 Q 5.166063720703125 0.267 5.104563720703125 0.267 Q 5.041563720703125 0.267 4.995813720703125 0.29100000000000004 Q 4.950063720703125 0.31499999999999995 4.920063720703125 0.35475 Q 4.890063720703125 0.39449999999999996 4.875813720703125 0.44475 Q 4.861563720703125 0.495 4.861563720703125 0.5475 M 6.0675856933593755 0.555 L 6.0675856933593755 1.0785 L 5.775085693359375 1.0785 L 5.775085693359375 0.013500000000000068 L 6.003085693359375 0.013500000000000068 L 6.430585693359375 0.555 L 6.430585693359375 0.013500000000000068 L 6.7230856933593754 0.013500000000000068 L 6.7230856933593754 1.0785 L 6.4905856933593755 1.0785 L 6.0675856933593755 0.555 M 7.7161281738281255 1.0785 L 7.7161281738281255 0.5175 L 7.537628173828125 0.912 L 7.381628173828125 0.912 L 7.203128173828126 0.5175 L 7.203128173828126 1.0785 L 6.910628173828125 1.0785 L 6.910628173828125 0.013500000000000068 L 7.230128173828126 0.013500000000000068 L 7.459628173828126 0.5145 L 7.6906281738281255 0.013500000000000068 L 8.008628173828125 0.013500000000000068 L 8.008628173828125 1.0785 L 7.7161281738281255 1.0785 M 8.955134033203125 0.8235 L 8.955134033203125 1.0785 L 8.196134033203125 1.0785 L 8.196134033203125 0.013500000000000068 L 8.941634033203124 0.013500000000000068 L 8.941634033203124 0.26849999999999996 L 8.488634033203125 0.26849999999999996 L 8.488634033203125 0.4185 L 8.875634033203125 0.4185 L 8.875634033203125 0.6555 L 8.488634033203125 0.6555 L 8.488634033203125 0.8235 L 8.955134033203125 0.8235 M 9.388611328125 0.555 L 9.388611328125 1.0785 L 9.096111328125 1.0785 L 9.096111328125 0.013500000000000068 L 9.324111328125 0.013500000000000068 L 9.751611328125 0.555 L 9.751611328125 0.013500000000000068 L 10.044111328125 0.013500000000000068 L 10.044111328125 1.0785 L 9.811611328125 1.0785 L 9.388611328125 0.555 M 11.06115380859375 0.26849999999999996 L 10.75515380859375 0.26849999999999996 L 10.75515380859375 1.0785 L 10.46265380859375 1.0785 L 10.46265380859375 0.26849999999999996 L 10.15515380859375 0.26849999999999996 L 10.15515380859375 0.013500000000000068 L 11.06115380859375 0.013500000000000068 L 11.06115380859375 0.26849999999999996 M 12.139629638671876 1.0785 L 11.665629638671875 0.5715 Q 11.602629638671875 0.504 11.565129638671875 0.45599999999999996 Q 11.527629638671876 0.40800000000000003 11.511879638671875 0.366 Q 11.496129638671876 0.32399999999999995 11.496129638671876 0.27449999999999997 Q 11.496129638671876 0.1875 11.536629638671876 0.126 Q 11.577129638671876 0.0645 11.648379638671875 0.03224999999999989 Q 11.719629638671876 0 11.808129638671875 0 Q 11.886129638671875 0 11.957379638671876 0.026249999999999885 Q 12.028629638671875 0.05249999999999999 12.075129638671875 0.10875000000000001 Q 12.121629638671875 0.16500000000000004 12.121629638671875 0.25649999999999995 Q 12.121629638671875 0.32999999999999996 12.089379638671875 0.39149999999999996 Q 12.057129638671876 0.45299999999999996 12.000879638671876 0.504 Q 11.944629638671875 0.555 11.872629638671874 0.597 Q 11.824629638671876 0.6255 11.786379638671875 0.65025 Q 11.748129638671875 0.675 11.727129638671876 0.69975 Q 11.706129638671875 0.7245 11.706129638671875 0.7545 Q 11.706129638671875 0.7755000000000001 11.718879638671876 0.80325 Q 11.731629638671876 0.831 11.760879638671875 0.8512500000000001 Q 11.790129638671875 0.8714999999999999 11.838129638671875 0.8714999999999999 Q 11.887629638671875 0.8714999999999999 11.940879638671875 0.8452500000000001 Q 11.994129638671875 0.819 12.039879638671875 0.7665 Q 12.085629638671875 0.714 12.113379638671875 0.636 Q 12.141129638671876 0.558 12.141129638671876 0.4545 L 12.370629638671875 0.4545 Q 12.369129638671875 0.618 12.319629638671875 0.73875 Q 12.270129638671875 0.8595 12.188379638671876 0.93825 Q 12.106629638671876 1.017 12.007629638671876 1.05525 Q 11.908629638671876 1.0935 11.808129638671875 1.0935 Q 11.685129638671874 1.0935 11.601129638671875 1.04325 Q 11.517129638671875 0.993 11.475129638671875 0.915 Q 11.433129638671875 0.837 11.433129638671875 0.7545 Q 11.433129638671875 0.6675 11.472879638671875 0.603 Q 11.512629638671875 0.5385 11.571129638671875 0.49050000000000005 Q 11.629629638671876 0.4425 11.685129638671874 0.40800000000000003 Q 11.749629638671875 0.36750000000000005 11.787879638671875 0.345 Q 11.826129638671876 0.3225 11.843379638671875 0.30374999999999996 Q 11.860629638671876 0.28500000000000003 11.860629638671876 0.25949999999999995 Q 11.860629638671876 0.23399999999999999 11.846379638671875 0.22050000000000003 Q 11.832129638671875 0.20699999999999996 11.808129638671875 0.20699999999999996 Q 11.791629638671875 0.20699999999999996 11.778879638671874 0.21450000000000002 Q 11.766129638671876 0.22199999999999998 11.760129638671875 0.23399999999999999 Q 11.754129638671875 0.246 11.754129638671875 0.26249999999999996 Q 11.754129638671875 0.28200000000000003 11.766879638671876 0.29774999999999996 Q 11.779629638671874 0.3135 11.809629638671876 0.33975 Q 11.839629638671875 0.366 11.890629638671875 0.4215 L 12.513129638671876 1.0785 L 12.139629638671876 1.0785 M 13.587128173828125 0.36150000000000004 Q 13.587128173828125 0.36150000000000004 13.561628173828126 0.34650000000000003 Q 13.536128173828125 0.3315 13.494128173828125 0.31275 Q 13.452128173828125 0.29400000000000004 13.402628173828125 0.279 Q 13.353128173828125 0.264 13.305128173828125 0.264 Q 13.267628173828125 0.264 13.243628173828126 0.276 Q 13.219628173828125 0.28800000000000003 13.219628173828125 0.3165 Q 13.219628173828125 0.3435 13.243628173828126 0.36 Q 13.267628173828125 0.37649999999999995 13.311878173828125 0.39 Q 13.356128173828125 0.40349999999999997 13.417628173828126 0.42300000000000004 Q 13.516628173828126 0.45299999999999996 13.588628173828125 0.492 Q 13.660628173828126 0.531 13.699628173828126 0.59175 Q 13.738628173828126 0.6525000000000001 13.738628173828126 0.753 Q 13.738628173828126 0.849 13.704128173828126 0.91425 Q 13.669628173828126 0.9795 13.611128173828126 1.0185 Q 13.552628173828126 1.0575 13.480628173828126 1.07475 Q 13.408628173828125 1.092 13.333628173828126 1.092 Q 13.257128173828125 1.092 13.173878173828125 1.07625 Q 13.090628173828126 1.0605 13.012628173828126 1.03275 Q 12.934628173828125 1.0050000000000001 12.870128173828126 0.9675 L 12.996128173828126 0.7110000000000001 Q 12.996128173828126 0.7110000000000001 13.026128173828125 0.729 Q 13.056128173828126 0.747 13.105628173828126 0.7695000000000001 Q 13.155128173828125 0.792 13.215878173828125 0.81 Q 13.276628173828126 0.8280000000000001 13.338128173828126 0.8280000000000001 Q 13.386128173828126 0.8280000000000001 13.404878173828125 0.81525 Q 13.423628173828126 0.8025 13.423628173828126 0.7815000000000001 Q 13.423628173828126 0.75 13.390628173828127 0.73275 Q 13.357628173828125 0.7155 13.304378173828125 0.69975 Q 13.251128173828125 0.6839999999999999 13.186628173828126 0.663 Q 13.093628173828126 0.6315 13.033628173828125 0.59175 Q 12.973628173828125 0.552 12.945128173828126 0.49724999999999997 Q 12.916628173828126 0.4425 12.916628173828126 0.36450000000000005 Q 12.916628173828126 0.246 12.972128173828125 0.16649999999999998 Q 13.027628173828125 0.08699999999999997 13.118378173828125 0.04574999999999996 Q 13.209128173828125 0.0044999999999999485 13.314128173828125 0.0044999999999999485 Q 13.392128173828125 0.0044999999999999485 13.464878173828126 0.023249999999999993 Q 13.537628173828125 0.04200000000000004 13.601378173828126 0.06899999999999995 Q 13.665128173828126 0.09599999999999997 13.713128173828126 0.12 L 13.587128173828125 0.36150000000000004 M 14.352134765625001 1.0875 Q 14.230634765625 1.0875 14.131634765625002 1.04175 Q 14.032634765625001 0.996 13.961384765625 0.91875 Q 13.890134765625001 0.8415 13.851884765625 0.74475 Q 13.813634765625 0.648 13.813634765625 0.5445 Q 13.813634765625 0.43800000000000006 13.854134765625 0.34199999999999997 Q 13.894634765625002 0.246 13.967384765625 0.17025 Q 14.040134765625 0.09450000000000003 14.139884765625 0.050999999999999934 Q 14.239634765625 0.007500000000000062 14.358134765625001 0.007500000000000062 Q 14.479634765625 0.007500000000000062 14.578634765625 0.05325000000000002 Q 14.677634765625001 0.09899999999999998 14.748134765625 0.17700000000000005 Q 14.818634765625001 0.255 14.856884765625 0.35175 Q 14.895134765625 0.4485 14.895134765625 0.5505 Q 14.895134765625 0.6555 14.855384765625 0.7515000000000001 Q 14.815634765625001 0.8475 14.742884765625 0.92325 Q 14.670134765625 0.999 14.571134765625 1.04325 Q 14.472134765625 1.0875 14.352134765625001 1.0875 M 14.110634765625 0.5475 Q 14.110634765625 0.6014999999999999 14.125634765625001 0.65175 Q 14.140634765625 0.702 14.170634765625001 0.74175 Q 14.200634765625 0.7815000000000001 14.246384765625 0.8047500000000001 Q 14.292134765625 0.8280000000000001 14.355134765625001 0.8280000000000001 Q 14.418134765625 0.8280000000000001 14.464634765625 0.804 Q 14.511134765625 0.78 14.540384765625001 0.73875 Q 14.569634765625 0.6975 14.583884765625001 0.64725 Q 14.598134765625002 0.597 14.598134765625002 0.5445 Q 14.598134765625002 0.49050000000000005 14.583134765625001 0.44099999999999995 Q 14.568134765625 0.39149999999999996 14.538134765625001 0.35175 Q 14.508134765625002 0.31199999999999994 14.461634765625 0.2895 Q 14.415134765625002 0.267 14.353634765625001 0.267 Q 14.290634765625 0.267 14.244884765625 0.29100000000000004 Q 14.199134765625 0.31499999999999995 14.169134765625001 0.35475 Q 14.139134765625 0.39449999999999996 14.124884765625001 0.44475 Q 14.110634765625 0.495 14.110634765625 0.5475 M 14.96565673828125 0.537 Q 14.96565673828125 0.4395 15.002406738281252 0.34575 Q 15.039156738281251 0.252 15.10965673828125 0.1755 Q 15.180156738281251 0.09899999999999998 15.281406738281252 0.05325000000000002 Q 15.38265673828125 0.007500000000000062 15.510156738281252 0.007500000000000062 Q 15.66315673828125 0.007500000000000062 15.777156738281251 0.07125000000000004 Q 15.891156738281252 0.135 15.94665673828125 0.24 L 15.72315673828125 0.399 Q 15.703656738281252 0.34650000000000003 15.66690673828125 0.31799999999999995 Q 15.63015673828125 0.2895 15.587406738281251 0.27825 Q 15.544656738281251 0.267 15.504156738281251 0.267 Q 15.44115673828125 0.267 15.39540673828125 0.29174999999999995 Q 15.34965673828125 0.3165 15.320406738281251 0.357 Q 15.29115673828125 0.39749999999999996 15.276906738281252 0.44699999999999995 Q 15.262656738281251 0.49650000000000005 15.262656738281251 0.546 Q 15.262656738281251 0.6014999999999999 15.279156738281252 0.6525000000000001 Q 15.29565673828125 0.7035 15.327156738281252 0.74325 Q 15.358656738281251 0.783 15.404406738281251 0.8055 Q 15.450156738281251 0.8280000000000001 15.507156738281251 0.8280000000000001 Q 15.547656738281251 0.8280000000000001 15.589656738281251 0.81525 Q 15.63165673828125 0.8025 15.66615673828125 0.774 Q 15.700656738281252 0.7455 15.71865673828125 0.6975 L 15.95715673828125 0.84 Q 15.925656738281251 0.918 15.85215673828125 0.9735 Q 15.778656738281251 1.029 15.685656738281251 1.05825 Q 15.592656738281251 1.0875 15.501156738281251 1.0875 Q 15.38265673828125 1.0875 15.284406738281252 1.0402500000000001 Q 15.186156738281252 0.993 15.11490673828125 0.91425 Q 15.043656738281252 0.8355 15.00465673828125 0.73725 Q 14.96565673828125 0.639 14.96565673828125 0.537 M 16.065125244140628 1.0785 L 16.065125244140628 0.013500000000000068 L 16.357625244140625 0.013500000000000068 L 16.357625244140625 1.0785 L 16.065125244140628 1.0785 M 16.791150146484373 0.013500000000000068 L 17.118150146484375 0.013500000000000068 L 17.457150146484373 1.0785 L 17.160150146484373 1.0785 L 17.095650146484374 0.87 L 16.812150146484374 0.87 L 16.749150146484375 1.0785 L 16.450650146484374 1.0785 L 16.791150146484373 0.013500000000000068 M 17.049150146484376 0.675 L 16.954650146484376 0.30000000000000004 L 16.855650146484376 0.675 L 17.049150146484376 0.675 M 17.550138427734375 1.0785 L 17.550138427734375 0.013500000000000068 L 17.842638427734375 0.013500000000000068 L 17.842638427734375 0.8235 L 18.325638427734376 0.8235 L 18.325638427734376 1.0785 L 17.550138427734375 1.0785" fill="#0e0904" fill-rule="nonzero"></path></g><g><path d=" M 0.06675 1.9723125 L 0.06675 1.4398125 L 0.11925000000000001 1.4398125 L 0.11925000000000001 1.9723125 L 0.06675 1.9723125 M 0.7256143798828125 1.9723125 L 0.7256143798828125 1.5388125 L 0.5328643798828125 1.8755625 L 0.4998643798828125 1.8755625 L 0.3063643798828125 1.5388125 L 0.3063643798828125 1.9723125 L 0.2538643798828125 1.9723125 L 0.2538643798828125 1.4398125 L 0.30786437988281246 1.4398125 L 0.5156143798828126 1.8043125 L 0.7248643798828125 1.4398125 L 0.7781143798828125 1.4398125 L 0.7781143798828125 1.9723125 L 0.7256143798828125 1.9723125 M 0.9127500000000001 1.9723125 L 0.9127500000000001 1.4398125 L 1.13325 1.4398125 Q 1.16775 1.4398125 1.196625 1.4540625 Q 1.2255 1.4683125 1.2465000000000002 1.4926875 Q 1.2675 1.5170625 1.2795 1.5466875 Q 1.2915 1.5763124999999998 1.2915 1.6070624999999998 Q 1.2915 1.6505625 1.272375 1.6891874999999998 Q 1.25325 1.7278125 1.21875 1.7518125 Q 1.18425 1.7758124999999998 1.13775 1.7758124999999998 L 0.96525 1.7758124999999998 L 0.96525 1.9723125 L 0.9127500000000001 1.9723125 M 0.96525 1.7293124999999998 L 1.1355 1.7293124999999998 Q 1.167 1.7293124999999998 1.19025 1.7120625 Q 1.2135 1.6948124999999998 1.22625 1.6670625 Q 1.239 1.6393125 1.239 1.6070624999999998 Q 1.239 1.5740625 1.2240000000000002 1.5463125 Q 1.209 1.5185624999999998 1.184625 1.5024374999999999 Q 1.16025 1.4863125 1.1310000000000002 1.4863125 L 0.96525 1.4863125 L 0.96525 1.7293124999999998 M 1.50862353515625 1.4398125 L 1.5528735351562502 1.4398125 L 1.77412353515625 1.9723125 L 1.7186235351562502 1.9723125 L 1.64962353515625 1.8058124999999998 L 1.41037353515625 1.8058124999999998 L 1.3421235351562502 1.9723125 L 1.28587353515625 1.9723125 L 1.50862353515625 1.4398125 M 1.63762353515625 1.7645624999999998 L 1.5303735351562502 1.5013124999999998 L 1.42162353515625 1.7645624999999998 L 1.63762353515625 1.7645624999999998 M 1.7970168457031253 1.7023125 Q 1.7970168457031253 1.6535624999999998 1.8138918457031252 1.6066874999999998 Q 1.8307668457031252 1.5598124999999998 1.863016845703125 1.5211875 Q 1.8952668457031252 1.4825624999999998 1.9425168457031252 1.4596874999999998 Q 1.9897668457031252 1.4368124999999998 2.0497668457031253 1.4368124999999998 Q 2.1210168457031253 1.4368124999999998 2.171641845703125 1.4694375 Q 2.222266845703125 1.5020624999999999 2.246266845703125 1.5530624999999998 L 2.205016845703125 1.5785624999999999 Q 2.187766845703125 1.5433124999999999 2.161516845703125 1.5226875 Q 2.135266845703125 1.5020624999999999 2.105641845703125 1.4930625 Q 2.0760168457031254 1.4840624999999998 2.046766845703125 1.4840624999999998 Q 1.9987668457031251 1.4840624999999998 1.962016845703125 1.5031875 Q 1.9252668457031252 1.5223125 1.9001418457031252 1.5541874999999998 Q 1.875016845703125 1.5860625 1.8622668457031253 1.6254374999999999 Q 1.8495168457031252 1.6648125 1.8495168457031252 1.7053124999999998 Q 1.8495168457031252 1.7495625 1.8645168457031251 1.7900625 Q 1.8795168457031253 1.8305624999999999 1.9065168457031252 1.8616875 Q 1.933516845703125 1.8928125 1.9698918457031251 1.9111874999999998 Q 2.006266845703125 1.9295624999999998 2.0490168457031253 1.9295624999999998 Q 2.079016845703125 1.9295624999999998 2.1105168457031254 1.9190625 Q 2.1420168457031252 1.9085625 2.1693918457031254 1.8868125 Q 2.196766845703125 1.8650624999999998 2.2132668457031253 1.8305624999999999 L 2.256766845703125 1.8530624999999998 Q 2.2402668457031254 1.8928125 2.205766845703125 1.9205625 Q 2.171266845703125 1.9483125 2.128891845703125 1.9625625 Q 2.0865168457031253 1.9768124999999999 2.046016845703125 1.9768124999999999 Q 1.9912668457031253 1.9768124999999999 1.945516845703125 1.9531874999999999 Q 1.8997668457031252 1.9295624999999998 1.8663918457031252 1.8901875 Q 1.833016845703125 1.8508125 1.8150168457031253 1.8016874999999999 Q 1.7970168457031253 1.7525624999999998 1.7970168457031253 1.7023125 M 2.72436181640625 1.4863125 L 2.53461181640625 1.4863125 L 2.53461181640625 1.9723125 L 2.4821118164062503 1.9723125 L 2.4821118164062503 1.4863125 L 2.2923618164062503 1.4863125 L 2.2923618164062503 1.4398125 L 2.72436181640625 1.4398125 L 2.72436181640625 1.4863125 M 3.286860717773438 1.5395625 Q 3.275610717773438 1.5268125 3.260610717773438 1.5166875 Q 3.2456107177734377 1.5065624999999998 3.226860717773438 1.4990625 Q 3.2081107177734376 1.4915625 3.1867357177734377 1.4870625 Q 3.1653607177734377 1.4825624999999998 3.1413607177734377 1.4825624999999998 Q 3.0716107177734377 1.4825624999999998 3.038985717773438 1.5091875 Q 3.006360717773438 1.5358125 3.006360717773438 1.5815625 Q 3.006360717773438 1.6130624999999998 3.0217357177734376 1.6310624999999999 Q 3.0371107177734378 1.6490624999999999 3.0701107177734377 1.6603124999999999 Q 3.1031107177734376 1.6715624999999998 3.1541107177734378 1.6835624999999999 Q 3.2111107177734377 1.6955624999999999 3.252360717773438 1.7120625 Q 3.2936107177734377 1.7285625 3.3161107177734377 1.7566875 Q 3.3386107177734377 1.7848125 3.3386107177734377 1.8328125 Q 3.3386107177734377 1.8695624999999998 3.324360717773438 1.8965625 Q 3.310110717773438 1.9235624999999998 3.284610717773438 1.9415624999999999 Q 3.2591107177734377 1.9595624999999999 3.2238607177734377 1.9681875 Q 3.1886107177734377 1.9768124999999999 3.146610717773438 1.9768124999999999 Q 3.1053607177734377 1.9768124999999999 3.0674857177734376 1.9681875 Q 3.029610717773438 1.9595624999999999 2.995860717773438 1.9426875 Q 2.9621107177734376 1.9258125 2.932860717773438 1.8995624999999998 L 2.959110717773438 1.8568125 Q 2.9733607177734376 1.8718124999999999 2.993235717773438 1.8849375 Q 3.0131107177734378 1.8980625 3.037485717773438 1.9085625 Q 3.061860717773438 1.9190625 3.089985717773438 1.9246874999999999 Q 3.1181107177734377 1.9303124999999999 3.148110717773438 1.9303124999999999 Q 3.2118607177734377 1.9303124999999999 3.2474857177734378 1.9070624999999999 Q 3.2831107177734378 1.8838125 3.2831107177734378 1.8380625 Q 3.2831107177734378 1.8050625 3.265110717773438 1.7851875 Q 3.2471107177734377 1.7653124999999998 3.2111107177734377 1.7525624999999998 Q 3.1751107177734377 1.7398125 3.122610717773438 1.7278125 Q 3.0671107177734376 1.7150625 3.028860717773438 1.6993125 Q 2.990610717773438 1.6835624999999999 2.971485717773438 1.6576875 Q 2.9523607177734377 1.6318124999999999 2.9523607177734377 1.5890624999999998 Q 2.9523607177734377 1.5395625 2.9767357177734377 1.5054375 Q 3.0011107177734377 1.4713124999999998 3.0438607177734376 1.4536875 Q 3.086610717773438 1.4360624999999998 3.1421107177734378 1.4360624999999998 Q 3.1773607177734378 1.4360624999999998 3.2077357177734376 1.4431875 Q 3.238110717773438 1.4503125 3.263985717773438 1.4638125 Q 3.289860717773438 1.4773125 3.312360717773438 1.4975625 L 3.286860717773438 1.5395625 M 3.7897316894531254 1.9258125 L 3.7897316894531254 1.9723125 L 3.431981689453125 1.9723125 L 3.431981689453125 1.4398125 L 3.782981689453125 1.4398125 L 3.782981689453125 1.4863125 L 3.4844816894531254 1.4863125 L 3.4844816894531254 1.6783124999999999 L 3.7447316894531255 1.6783124999999999 L 3.7447316894531255 1.7225625 L 3.4844816894531254 1.7225625 L 3.4844816894531254 1.9258125 L 3.7897316894531254 1.9258125 M 3.8898632812500002 1.9723125 L 3.8898632812500002 1.4398125 L 4.114863281250001 1.4398125 Q 4.14936328125 1.4398125 4.1778632812500005 1.4540625 Q 4.206363281250001 1.4683125 4.227738281250001 1.4926875 Q 4.2491132812500005 1.5170625 4.26073828125 1.5466875 Q 4.2723632812500005 1.5763124999999998 4.2723632812500005 1.6070624999999998 Q 4.2723632812500005 1.6453125 4.25773828125 1.6790625 Q 4.24311328125 1.7128124999999998 4.21648828125 1.7360624999999998 Q 4.18986328125 1.7593124999999998 4.1538632812500005 1.7668125 L 4.28436328125 1.9723125 L 4.2251132812500005 1.9723125 L 4.09986328125 1.7758124999999998 L 3.9423632812500005 1.7758124999999998 L 3.9423632812500005 1.9723125 L 3.8898632812500002 1.9723125 M 3.9423632812500005 1.7293124999999998 L 4.116363281250001 1.7293124999999998 Q 4.14786328125 1.7293124999999998 4.17111328125 1.7120625 Q 4.19436328125 1.6948124999999998 4.207113281250001 1.6666874999999999 Q 4.21986328125 1.6385625 4.21986328125 1.6070624999999998 Q 4.21986328125 1.5748125 4.205238281250001 1.5474375 Q 4.19061328125 1.5200624999999999 4.16623828125 1.5031875 Q 4.14186328125 1.4863125 4.111863281250001 1.4863125 L 3.9423632812500005 1.4863125 L 3.9423632812500005 1.7293124999999998 M 4.36426318359375 1.4398125 L 4.55476318359375 1.9070624999999999 L 4.74451318359375 1.4398125 L 4.799263183593751 1.4398125 L 4.57876318359375 1.9723125 L 4.53076318359375 1.9723125 L 4.309513183593751 1.4398125 L 4.36426318359375 1.4398125 M 4.876900268554688 1.9723125 L 4.876900268554688 1.4398125 L 4.929400268554688 1.4398125 L 4.929400268554688 1.9723125 L 4.876900268554688 1.9723125 M 5.028764648437501 1.7023125 Q 5.028764648437501 1.6535624999999998 5.045639648437501 1.6066874999999998 Q 5.0625146484375 1.5598124999999998 5.094764648437501 1.5211875 Q 5.1270146484375 1.4825624999999998 5.1742646484375 1.4596874999999998 Q 5.2215146484375 1.4368124999999998 5.281514648437501 1.4368124999999998 Q 5.352764648437501 1.4368124999999998 5.403389648437501 1.4694375 Q 5.4540146484375 1.5020624999999999 5.478014648437501 1.5530624999999998 L 5.4367646484375 1.5785624999999999 Q 5.4195146484375005 1.5433124999999999 5.3932646484375 1.5226875 Q 5.3670146484375 1.5020624999999999 5.337389648437501 1.4930625 Q 5.307764648437501 1.4840624999999998 5.2785146484375005 1.4840624999999998 Q 5.2305146484375005 1.4840624999999998 5.193764648437501 1.5031875 Q 5.1570146484375 1.5223125 5.1318896484375 1.5541874999999998 Q 5.1067646484375 1.5860625 5.094014648437501 1.6254374999999999 Q 5.0812646484375 1.6648125 5.0812646484375 1.7053124999999998 Q 5.0812646484375 1.7495625 5.096264648437501 1.7900625 Q 5.1112646484375 1.8305624999999999 5.1382646484375005 1.8616875 Q 5.165264648437501 1.8928125 5.2016396484375 1.9111874999999998 Q 5.238014648437501 1.9295624999999998 5.280764648437501 1.9295624999999998 Q 5.310764648437501 1.9295624999999998 5.3422646484375 1.9190625 Q 5.373764648437501 1.9085625 5.401139648437501 1.8868125 Q 5.428514648437501 1.8650624999999998 5.445014648437501 1.8305624999999999 L 5.4885146484375005 1.8530624999999998 Q 5.472014648437501 1.8928125 5.4375146484375 1.9205625 Q 5.403014648437501 1.9483125 5.3606396484375 1.9625625 Q 5.3182646484375 1.9768124999999999 5.2777646484375005 1.9768124999999999 Q 5.2230146484375 1.9768124999999999 5.1772646484375 1.9531874999999999 Q 5.1315146484375 1.9295624999999998 5.098139648437501 1.8901875 Q 5.0647646484375 1.8508125 5.046764648437501 1.8016874999999999 Q 5.028764648437501 1.7525624999999998 5.028764648437501 1.7023125 M 5.937370239257813 1.9258125 L 5.937370239257813 1.9723125 L 5.579620239257813 1.9723125 L 5.579620239257813 1.4398125 L 5.930620239257813 1.4398125 L 5.930620239257813 1.4863125 L 5.632120239257813 1.4863125 L 5.632120239257813 1.6783124999999999 L 5.892370239257813 1.6783124999999999 L 5.892370239257813 1.7225625 L 5.632120239257813 1.7225625 L 5.632120239257813 1.9258125 L 5.937370239257813 1.9258125 M 6.345730590820313 1.5395625 Q 6.334480590820313 1.5268125 6.319480590820313 1.5166875 Q 6.304480590820313 1.5065624999999998 6.285730590820313 1.4990625 Q 6.266980590820313 1.4915625 6.245605590820313 1.4870625 Q 6.224230590820313 1.4825624999999998 6.200230590820313 1.4825624999999998 Q 6.130480590820313 1.4825624999999998 6.097855590820313 1.5091875 Q 6.065230590820313 1.5358125 6.065230590820313 1.5815625 Q 6.065230590820313 1.6130624999999998 6.080605590820313 1.6310624999999999 Q 6.0959805908203135 1.6490624999999999 6.128980590820313 1.6603124999999999 Q 6.161980590820313 1.6715624999999998 6.2129805908203135 1.6835624999999999 Q 6.269980590820313 1.6955624999999999 6.311230590820313 1.7120625 Q 6.3524805908203135 1.7285625 6.374980590820313 1.7566875 Q 6.397480590820313 1.7848125 6.397480590820313 1.8328125 Q 6.397480590820313 1.8695624999999998 6.383230590820313 1.8965625 Q 6.368980590820313 1.9235624999999998 6.343480590820313 1.9415624999999999 Q 6.317980590820313 1.9595624999999999 6.2827305908203135 1.9681875 Q 6.247480590820313 1.9768124999999999 6.205480590820313 1.9768124999999999 Q 6.164230590820313 1.9768124999999999 6.126355590820313 1.9681875 Q 6.088480590820313 1.9595624999999999 6.054730590820313 1.9426875 Q 6.020980590820313 1.9258125 5.991730590820313 1.8995624999999998 L 6.017980590820313 1.8568125 Q 6.032230590820313 1.8718124999999999 6.052105590820313 1.8849375 Q 6.0719805908203135 1.8980625 6.096355590820313 1.9085625 Q 6.120730590820313 1.9190625 6.148855590820313 1.9246874999999999 Q 6.176980590820313 1.9303124999999999 6.206980590820313 1.9303124999999999 Q 6.270730590820313 1.9303124999999999 6.3063555908203135 1.9070624999999999 Q 6.341980590820313 1.8838125 6.341980590820313 1.8380625 Q 6.341980590820313 1.8050625 6.323980590820313 1.7851875 Q 6.3059805908203135 1.7653124999999998 6.269980590820313 1.7525624999999998 Q 6.233980590820313 1.7398125 6.181480590820313 1.7278125 Q 6.125980590820313 1.7150625 6.087730590820313 1.6993125 Q 6.0494805908203135 1.6835624999999999 6.030355590820313 1.6576875 Q 6.011230590820313 1.6318124999999999 6.011230590820313 1.5890624999999998 Q 6.011230590820313 1.5395625 6.035605590820313 1.5054375 Q 6.059980590820313 1.4713124999999998 6.102730590820313 1.4536875 Q 6.145480590820313 1.4360624999999998 6.200980590820313 1.4360624999999998 Q 6.2362305908203135 1.4360624999999998 6.266605590820313 1.4431875 Q 6.296980590820313 1.4503125 6.322855590820313 1.4638125 Q 6.348730590820313 1.4773125 6.371230590820313 1.4975625 L 6.345730590820313 1.5395625 M 6.647980224609376 1.7023125 Q 6.647980224609376 1.6535624999999998 6.664855224609376 1.6066874999999998 Q 6.6817302246093755 1.5598124999999998 6.713980224609376 1.5211875 Q 6.746230224609375 1.4825624999999998 6.793480224609375 1.4596874999999998 Q 6.840730224609375 1.4368124999999998 6.900730224609376 1.4368124999999998 Q 6.971980224609376 1.4368124999999998 7.022605224609376 1.4694375 Q 7.073230224609375 1.5020624999999999 7.097230224609376 1.5530624999999998 L 7.0559802246093755 1.5785624999999999 Q 7.038730224609376 1.5433124999999999 7.012480224609376 1.5226875 Q 6.9862302246093755 1.5020624999999999 6.956605224609376 1.4930625 Q 6.926980224609376 1.4840624999999998 6.897730224609376 1.4840624999999998 Q 6.849730224609376 1.4840624999999998 6.812980224609376 1.5031875 Q 6.7762302246093755 1.5223125 6.7511052246093755 1.5541874999999998 Q 6.725980224609375 1.5860625 6.713230224609376 1.6254374999999999 Q 6.700480224609375 1.6648125 6.700480224609375 1.7053124999999998 Q 6.700480224609375 1.7495625 6.715480224609376 1.7900625 Q 6.730480224609376 1.8305624999999999 6.757480224609376 1.8616875 Q 6.784480224609376 1.8928125 6.820855224609375 1.9111874999999998 Q 6.857230224609376 1.9295624999999998 6.899980224609376 1.9295624999999998 Q 6.929980224609376 1.9295624999999998 6.961480224609375 1.9190625 Q 6.992980224609376 1.9085625 7.020355224609376 1.8868125 Q 7.047730224609376 1.8650624999999998 7.064230224609376 1.8305624999999999 L 7.107730224609376 1.8530624999999998 Q 7.091230224609376 1.8928125 7.0567302246093755 1.9205625 Q 7.022230224609376 1.9483125 6.979855224609375 1.9625625 Q 6.937480224609375 1.9768124999999999 6.896980224609376 1.9768124999999999 Q 6.842230224609375 1.9768124999999999 6.796480224609375 1.9531874999999999 Q 6.750730224609375 1.9295624999999998 6.717355224609376 1.8901875 Q 6.683980224609376 1.8508125 6.665980224609376 1.8016874999999999 Q 6.647980224609376 1.7525624999999998 6.647980224609376 1.7023125 M 7.407339111328126 1.9760624999999998 Q 7.351089111328125 1.9760624999999998 7.305339111328125 1.9535624999999999 Q 7.2595891113281255 1.9310625 7.226589111328126 1.8924375 Q 7.193589111328126 1.8538124999999999 7.175589111328126 1.8054375 Q 7.157589111328126 1.7570625 7.157589111328126 1.7060624999999998 Q 7.157589111328126 1.6528125 7.176339111328126 1.6044375 Q 7.195089111328126 1.5560625 7.229214111328126 1.5181874999999998 Q 7.263339111328126 1.4803125 7.3090891113281256 1.4581874999999997 Q 7.3548391113281255 1.4360624999999998 7.408089111328126 1.4360624999999998 Q 7.464339111328126 1.4360624999999998 7.510089111328126 1.4593124999999998 Q 7.555839111328126 1.4825624999999998 7.5884641113281255 1.5215625 Q 7.621089111328126 1.5605624999999999 7.639089111328126 1.6085625 Q 7.657089111328125 1.6565625 7.657089111328125 1.7068124999999998 Q 7.657089111328125 1.7600624999999999 7.638339111328126 1.8084375 Q 7.619589111328126 1.8568125 7.585839111328125 1.8946874999999999 Q 7.552089111328126 1.9325625 7.506339111328126 1.9543125 Q 7.460589111328126 1.9760624999999998 7.407339111328126 1.9760624999999998 M 7.210089111328125 1.7060624999999998 Q 7.210089111328125 1.7495625 7.224339111328126 1.7896874999999999 Q 7.2385891113281255 1.8298124999999998 7.264839111328126 1.8609375 Q 7.291089111328126 1.8920625 7.327464111328125 1.9104375 Q 7.363839111328126 1.9288124999999998 7.407339111328126 1.9288124999999998 Q 7.453089111328126 1.9288124999999998 7.489464111328125 1.9096875 Q 7.525839111328126 1.8905625 7.551714111328126 1.8586874999999998 Q 7.577589111328126 1.8268125 7.591089111328126 1.7870625 Q 7.604589111328126 1.7473124999999998 7.604589111328126 1.7060624999999998 Q 7.604589111328126 1.6625625 7.5903391113281256 1.6228124999999998 Q 7.576089111328126 1.5830625 7.549464111328126 1.5515625 Q 7.522839111328126 1.5200624999999999 7.486839111328126 1.5020624999999999 Q 7.450839111328126 1.4840624999999998 7.407339111328126 1.4840624999999998 Q 7.362339111328126 1.4840624999999998 7.325964111328125 1.5028124999999999 Q 7.289589111328126 1.5215625 7.263714111328126 1.5534374999999998 Q 7.2378391113281255 1.5853125 7.223964111328126 1.6250624999999999 Q 7.210089111328125 1.6648125 7.210089111328125 1.7060624999999998 M 8.228946533203125 1.9723125 L 8.228946533203125 1.5388125 L 8.036196533203126 1.8755625 L 8.003196533203125 1.8755625 L 7.809696533203126 1.5388125 L 7.809696533203126 1.9723125 L 7.757196533203126 1.9723125 L 7.757196533203126 1.4398125 L 7.811196533203126 1.4398125 L 8.018946533203126 1.8043125 L 8.228196533203127 1.4398125 L 8.281446533203125 1.4398125 L 8.281446533203125 1.9723125 L 8.228946533203125 1.9723125 M 8.416082153320314 1.9723125 L 8.416082153320314 1.4398125 L 8.636582153320314 1.4398125 Q 8.671082153320313 1.4398125 8.699957153320314 1.4540625 Q 8.728832153320313 1.4683125 8.749832153320312 1.4926875 Q 8.770832153320313 1.5170625 8.782832153320314 1.5466875 Q 8.794832153320314 1.5763124999999998 8.794832153320314 1.6070624999999998 Q 8.794832153320314 1.6505625 8.775707153320313 1.6891874999999998 Q 8.756582153320313 1.7278125 8.722082153320313 1.7518125 Q 8.687582153320314 1.7758124999999998 8.641082153320314 1.7758124999999998 L 8.468582153320312 1.7758124999999998 L 8.468582153320312 1.9723125 L 8.416082153320314 1.9723125 M 8.468582153320312 1.7293124999999998 L 8.638832153320314 1.7293124999999998 Q 8.670332153320313 1.7293124999999998 8.693582153320314 1.7120625 Q 8.716832153320313 1.6948124999999998 8.729582153320314 1.6670625 Q 8.742332153320314 1.6393125 8.742332153320314 1.6070624999999998 Q 8.742332153320314 1.5740625 8.727332153320313 1.5463125 Q 8.712332153320313 1.5185624999999998 8.687957153320314 1.5024374999999999 Q 8.663582153320313 1.4863125 8.634332153320313 1.4863125 L 8.468582153320312 1.4863125 L 8.468582153320312 1.7293124999999998 M 9.011955688476563 1.4398125 L 9.056205688476563 1.4398125 L 9.277455688476563 1.9723125 L 9.221955688476564 1.9723125 L 9.152955688476563 1.8058124999999998 L 8.913705688476563 1.8058124999999998 L 8.845455688476564 1.9723125 L 8.789205688476564 1.9723125 L 9.011955688476563 1.4398125 M 9.140955688476563 1.7645624999999998 L 9.033705688476564 1.5013124999999998 L 8.924955688476564 1.7645624999999998 L 9.140955688476563 1.7645624999999998 M 9.407599731445313 1.5365624999999998 L 9.407599731445313 1.9723125 L 9.355099731445314 1.9723125 L 9.355099731445314 1.4398125 L 9.398599731445314 1.4398125 L 9.748099731445313 1.8838125 L 9.748099731445313 1.4405625 L 9.800599731445313 1.4405625 L 9.800599731445313 1.9723125 L 9.751849731445313 1.9723125 L 9.407599731445313 1.5365624999999998 M 9.938204223632814 1.4398125 L 10.112204223632814 1.7263125 L 10.287704223632813 1.4398125 L 10.344704223632814 1.4398125 L 10.138454223632813 1.7743125 L 10.138454223632813 1.9723125 L 10.085954223632813 1.9723125 L 10.085954223632813 1.7728125 L 9.880454223632814 1.4398125 L 9.938204223632814 1.4398125" fill="#0e0904" fill-rule="nonzero"></path></g></g><defs><clipPath id="SvgjsClipPath1001"><path d=" M 0 -13.215631128547567 h 12.965631128547567 v 12.965631128547567 h -12.965631128547567 Z"></path></clipPath><mask id="maskedMgText-64a62e23-b250-4723-b4e3-51d52058e8f6"><path d=" M 12.965631128547567 -6.732815564273783 C 12.965631128547567 -3.1524550669219487 10.063176061625619 -0.24999999999999822 6.482815564273784 -0.24999999999999822 C 2.90245506692195 -0.24999999999999822 0 -3.1524550669219487 0 -6.732815564273783 C 0 -10.313176061625617 2.90245506692195 -13.215631128547567 6.482815564273784 -13.215631128547567 C 10.063176061625619 -13.215631128547567 12.965631128547567 -10.313176061625617 12.965631128547567 -6.732815564273783 Z" fill="#ffffff" transform="matrix(1,0,0,1,0,0)" fill-rule="nonzero"></path><path d=" M 5.460319595262441 -6.337195628600234 C 5.460319595262441 -6.292600788830269 5.4488523507501645 -6.2559693133049405 5.425917861725611 -6.227301202024249 C 5.402983372701057 -6.198633090743557 5.3698557774433695 -6.184299035103211 5.326535075952545 -6.184299035103211 C 5.287036789299148 -6.184299035103211 5.254227728611245 -6.1970404178946294 5.228107893888837 -6.222523183477467 C 5.201988059166429 -6.248005949060304 5.1838315886886575 -6.278585267759709 5.173638482455523 -6.314261139575681 L 5.0761669041011706 -6.66974571945626 L 4.437823626251099 -6.66974571945626 L 4.437823626251099 -5.433194519549085 L 6.125419776974493 -5.433194519549085 L 6.347119837545176 -6.063892967724305 C 6.3649577734531615 -6.103391254377703 6.389803469896428 -6.137474453344748 6.421656926874975 -6.1661425646254395 C 6.453510383853521 -6.194810675906131 6.4942828087860605 -6.209144731546477 6.543974201672594 -6.209144731546477 C 6.586020764884275 -6.209144731546477 6.619785429281534 -6.196403348755059 6.6452681948643715 -6.170920583172221 C 6.670750960447208 -6.145437817589384 6.683492343238627 -6.111036084052554 6.683492343238627 -6.067715382561731 C 6.683492343238627 -6.054973999770312 6.6825367395292705 -6.042232616978894 6.680625532110557 -6.029491234187475 C 6.678714324691844 -6.016749851396057 6.675847513563776 -6.004645537744209 6.67202509872635 -5.993178293231932 L 6.551619031347444 -5.245896192515231 C 6.538877648556026 -5.200027214466124 6.52103971264804 -5.163714273510581 6.498105223623487 -5.136957369648602 C 6.475170734598933 -5.110200465786623 6.440769001062103 -5.0968220138556335 6.394900023012996 -5.0968220138556335 L 3.451640598195299 -5.0968220138556335 C 3.4070457584253337 -5.0968220138556335 3.372325490318718 -5.113067276914692 3.347479793875452 -5.145557803032809 C 3.3226340974321853 -5.178048329150927 3.3102112492105524 -5.215316873815826 3.3102112492105524 -5.257363437027508 C 3.3102112492105524 -5.304506553355757 3.321041424583258 -5.345597512858082 3.3427017753286696 -5.380636315534483 C 3.3643621260740812 -5.415675118210884 3.3994009287504827 -5.433194519549085 3.447818183357873 -5.433194519549085 L 3.992512297691018 -5.433194519549085 L 3.992512297691018 -8.036259023835905 L 3.6427613400665777 -8.036259023835905 C 3.5943440854591873 -8.036259023835905 3.5596238173525716 -8.053778425174105 3.5386005357467307 -8.088817227850507 C 3.51757725414089 -8.123856030526907 3.5070656133379696 -8.164946990029232 3.5070656133379696 -8.212090106357481 C 3.5070656133379696 -8.254136669569164 3.5191699269898176 -8.291405214234063 3.5433785542935126 -8.32389574035218 C 3.567587181597208 -8.356386266470297 3.6019889151340383 -8.372631529529356 3.6465837549040034 -8.372631529529356 L 6.3165405188457715 -8.372631529529356 C 6.362409496894879 -8.372631529529356 6.396174161292137 -8.358934543028582 6.417834512037549 -8.33154057002703 C 6.4394948627829605 -8.30414659702548 6.457969867830517 -8.268152190639723 6.47325952718022 -8.223557350869758 L 6.656735439376648 -7.617704599137804 C 6.6605578542140735 -7.6036890780672435 6.663424665342143 -7.5903106261362545 6.665335872760855 -7.5775692433448345 C 6.6672470801795685 -7.564827860553416 6.668202683888925 -7.5533606160411395 6.668202683888925 -7.543167509808005 C 6.668202683888925 -7.501120946596323 6.655142766527721 -7.467037747629279 6.629022931805313 -7.440917912906871 C 6.602903097082905 -7.414798078184463 6.56945696725543 -7.401738160823259 6.528684542322891 -7.401738160823259 C 6.481541425994642 -7.401738160823259 6.441087535631889 -7.416072216463604 6.407322871234628 -7.444740327744296 C 6.3735582068373695 -7.473408439024988 6.348393975824318 -7.5074916379920325 6.331830178195474 -7.54698992464543 L 6.125419776974493 -8.036259023835905 L 4.437823626251099 -8.036259023835905 L 4.437823626251099 -6.944959587750901 L 5.0761669041011706 -6.944959587750901 L 5.173638482455523 -7.300444167631481 C 5.1838315886886575 -7.336120039447453 5.201988059166429 -7.366699358146858 5.228107893888837 -7.392182123729695 C 5.254227728611245 -7.417664889312531 5.287036789299148 -7.43040627210395 5.326535075952545 -7.43040627210395 C 5.3698557774433695 -7.43040627210395 5.402983372701057 -7.416072216463604 5.425917861725611 -7.387404105182913 C 5.4488523507501645 -7.35873599390222 5.460319595262441 -7.322104518376892 5.460319595262441 -7.277509678606927 L 5.431651483981749 -6.814997483278432 L 5.460319595262441 -6.337195628600234" fill="NA" transform="matrix(1,0,0,1,0,0)" fill-rule="nonzero"></path><path d=" M 8.374910908799446 -8.118440942840554 C 8.0691177218054 -8.118440942840554 7.866529735421844 -8.060786185709386 7.7671469496487795 -7.945476671447047 C 7.667764163875714 -7.830167157184709 7.618072770989182 -7.700523587282024 7.618072770989182 -7.556545961738994 C 7.618072770989182 -7.432954548662234 7.661074937910219 -7.333253228319384 7.747079271752295 -7.2574420007104425 C 7.8330836055943704 -7.181630773101502 7.961453037217913 -7.122701877691191 8.132187566622921 -7.080655314479509 L 8.680704095793493 -6.944959587750901 C 8.93170933678444 -6.882526812072951 9.136208530586707 -6.780277215171816 9.294201677200299 -6.638210797047499 C 9.452194823813889 -6.496144378923181 9.531191397120685 -6.274125783782712 9.531191397120685 -5.972155011626091 C 9.531191397120685 -5.64215319732835 9.400592223508644 -5.405163477407964 9.139393876284561 -5.2611858518649335 C 8.87819552906048 -5.117208226321903 8.580684240880856 -5.045219413550388 8.246860011745689 -5.045219413550388 C 8.111801354156652 -5.045219413550388 7.97355735086976 -5.063057349458374 7.832128001885014 -5.098733221274347 C 7.690698652900267 -5.134409093090318 7.558825341009085 -5.194293592209986 7.436508066211466 -5.278386718633349 C 7.431411513094899 -5.235066017142525 7.418033061163909 -5.186011693395564 7.396372710418498 -5.131223747392464 C 7.374712359673087 -5.076435801389364 7.3422218335549685 -5.049041828387813 7.298901132064145 -5.049041828387813 C 7.253032154015038 -5.049041828387813 7.216082143919925 -5.058597865481378 7.188051101778804 -5.077709939668505 C 7.160020059637683 -5.0968220138556335 7.143456262008838 -5.128038401694609 7.1383597088922714 -5.1713591031854325 L 7.029420886025642 -6.119317982866976 C 7.029420886025642 -6.170283514032651 7.044710545375344 -6.208189127837121 7.075289864074749 -6.233034824280387 C 7.105869182774153 -6.257880520723654 7.15173816082326 -6.270303368945287 7.21289679822207 -6.270303368945287 C 7.251120946596326 -6.270303368945287 7.284885610993585 -6.259154659002795 7.314190791413848 -6.236857239117812 C 7.343495971834111 -6.21455981923283 7.360696838602526 -6.184299035103211 7.365793391719093 -6.146074886728956 L 7.396372710418498 -5.880417055527878 C 7.409114093209917 -5.761922195567685 7.497029634470705 -5.649479492433415 7.660119334200862 -5.54308894612507 C 7.823209033931021 -5.436698399816724 8.002862531290024 -5.383503126662552 8.19907982627787 -5.383503126662552 C 8.416957472011127 -5.383503126662552 8.62814589177889 -5.422364344176379 8.83264508558116 -5.500086779204032 C 9.037144279383428 -5.577809214231686 9.139393876284561 -5.735802360845276 9.139393876284561 -5.974066219044804 C 9.139393876284561 -6.146074886728956 9.087472741409531 -6.26584388496829 8.98363047165947 -6.333373213762808 C 8.87978820190941 -6.400902542557327 8.756515323402434 -6.455053419420857 8.613811836138545 -6.495825844353396 L 7.98693580280075 -6.673568134293685 C 7.758865050834357 -6.72453366545936 7.5699740509515765 -6.815316017848217 7.420262803152408 -6.945915191460258 C 7.270551555353239 -7.076514365072299 7.195695931453654 -7.269864848932076 7.195695931453654 -7.52596664303959 C 7.195695931453654 -7.805002926171657 7.3049532888900695 -8.02383617561427 7.523468003762899 -8.182466391367434 C 7.741982718635727 -8.341096607120594 8.004773738708735 -8.420411714997176 8.311841063981925 -8.420411714997176 C 8.444351445012678 -8.420411714997176 8.58036570631107 -8.403847917368331 8.719883847877105 -8.370720322110643 C 8.859401989443139 -8.337592726852955 8.975030038275262 -8.282804780849855 9.066767994373476 -8.206356484101343 C 9.066767994373476 -8.259870291825301 9.083650326572105 -8.308606081002477 9.117414990969365 -8.352563851632873 C 9.151179655366626 -8.396521622263265 9.194181822287662 -8.418500507578463 9.246421491732479 -8.418500507578463 C 9.284645640106735 -8.418500507578463 9.318410304503994 -8.407033263066186 9.347715484924256 -8.384098774041632 C 9.377020665344519 -8.361164285017079 9.394221532112935 -8.330584966317675 9.399318085229503 -8.292360817943418 L 9.412696537160492 -7.5336114727144405 C 9.412696537160492 -7.478823526711341 9.396132739531648 -7.439006705488158 9.36300514427396 -7.414161009044891 C 9.32987754901627 -7.389315312601625 9.28783098580459 -7.376892464379992 9.236865454638915 -7.376892464379992 C 9.19227061486895 -7.376892464379992 9.155639139343622 -7.386448501473556 9.126971028062929 -7.405560575660684 C 9.098302916782238 -7.424672649847812 9.081420584583608 -7.455251968547216 9.07632403146704 -7.497298531758898 L 9.06867920179219 -7.718998592329582 C 9.052115404163345 -7.862976217872612 8.97311883085655 -7.965544349343531 8.831689481871804 -8.026702986742341 C 8.690260132887056 -8.08786162414115 8.538000608529604 -8.118440942840554 8.374910908799446 -8.118440942840554 L 8.374910908799446 -8.118440942840554" fill="NA" transform="matrix(1,0,0,1,0,0)" fill-rule="nonzero"></path></mask></defs></svg>