<svg xmlns="http://www.w3.org/2000/svg" version="1.1" xmlns:xlink="http://www.w3.org/1999/xlink" viewBox="0 0 10.706036537744627 10.706036537744627"><g transform="matrix(1,0,0,1,3.4637561705666102,3.379402344494638)"><g><path d=" M -1.2067256616769213 0.05456028957471892 Q -1.14858620209549 0.040240609425388874 -1.0846863291749036 0.07341900963897552 Q -1.005698986259179 0.11443119879188113 -0.9930517933938315 0.1942375175431349 Q -0.9804046005284841 0.2740438362943885 -1.0393884231304158 0.38764361037543077 L -1.1831614907226244 0.6645430596979713 L -1.8044102552283245 0.3419752798436573 L -1.6698534099176678 0.08282579522127953 Q -1.6173209429128224 -0.018349003569648747 -1.5467907692410168 -0.05327742468805785 Q -1.476260595569211 -0.08820584580646695 -1.3999357473585106 -0.0485760899957941 Q -1.346685853258022 -0.020927423151138602 -1.3248139757161324 0.02592202692879919 Q -1.3029420981742426 0.07277147700873698 -1.311850930104286 0.1289909817525734 Q -1.2648651212583526 0.06887996972404897 -1.2067256616769213 0.05456028957471892 M -1.741858966070009 0.316988558877656 L -1.4942469585027371 0.44555485970530406 L -1.3841131022381927 0.23344278153835796 Q -1.3417184797430544 0.15179294391760878 -1.3504145169390025 0.09150298673495116 Q -1.359110554134951 0.03121302955229366 -1.4203479323505128 -0.0005829373190602283 Q -1.4806978123310666 -0.03191809307633642 -1.5350141498206964 -0.0043457249931878605 Q -1.5893304873103262 0.023226643089960697 -1.6317251098054646 0.10487648071070987 L -1.741858966070009 0.316988558877656 M -1.0387492156885754 0.21389064949750414 Q -1.046062819542291 0.15093819760982208 -1.1117376889328934 0.11683817516808037 Q -1.177412558323496 0.08273815272633855 -1.2326675800378546 0.11320342107155035 Q -1.2879226017522132 0.14366868941676225 -1.3349253353881274 0.23419350938759276 L -1.455197036162379 0.4658305487247181 L -1.1987100462450255 0.599004960693142 L -1.0784383454707742 0.36736792135601676 Q -1.0314356118348598 0.2768431013851862 -1.0387492156885754 0.21389064949750414 M -0.514097850171691 -0.41268768304855874 L -0.4789710195645721 -0.38298741753629806 L -0.7908238074433089 -0.014155696161550338 L -1.3253625340733781 -0.4661162583046473 L -1.023194615383422 -0.823493578394465 L -0.9880677847763031 -0.7937933128822043 L -1.2573071482244051 -0.4753609571611488 L -1.046546164581692 -0.29715936408758487 L -0.8057157507540134 -0.5819921427061789 L -0.7713525468992232 -0.5529375351398369 L -1.012182960726902 -0.2681047565212429 L -0.7930220828085737 -0.08280092604257316 L -0.514097850171691 -0.41268768304855874 M -0.678517813468686 -1.0758286881862473 L -0.4942268153314687 -0.8403762980824554 L -0.20050192734245748 -1.0702777773640006 L -0.1721494660905779 -1.0340543327326481 L -0.46587435407958916 -0.8041528534511029 L -0.27541977740935464 -0.56082580147093 L -0.31558055297889775 -0.5293915509525418 L -0.7470310502901086 -1.0806178822992116 L -0.37849687447547786 -1.3690733576444214 L -0.3501444132235983 -1.3328499130130687 L -0.678517813468686 -1.0758286881862473 M -0.1194699267290682 -1.5201775035898226 L -0.07509671084447811 -1.5453174660412574 L 0.26996159731247316 -0.9362733264488446 L 0.22558838142788307 -0.9111333639974096 L -0.1194699267290682 -1.5201775035898226 M 0.5882358730939807 -1.4634556461607156 L 0.49719486193766493 -1.2578309047319771 L 0.5613255444747164 -1.0853685738961336 L 0.5135234853843468 -1.06759322167119 L 0.2695480626890421 -1.7236999150684205 L 0.31735012177941174 -1.7414752672933642 L 0.47419146494067904 -1.3196923929665731 L 0.7269481575145399 -1.8937856383188616 L 0.7850604646440089 -1.9153948900433027 L 0.6072080687165231 -1.5099858061997697 L 1.0487190881412305 -1.2666074593269314 L 0.9906067810117615 -1.2449982076024901 L 0.5882358730939807 -1.4634556461607156 M 1.6943664945727535 -1.3599206133272537 L 1.497865547104043 -1.5697595459491558 Q 1.4618527909391148 -1.5599065568897164 1.4311254992422815 -1.5558036865557043 L 1.2328849076498085 -1.5293335553685288 L 1.2631932078591244 -1.302348077995147 L 1.2126418570030437 -1.2955981945424173 L 1.1199963978479295 -1.9894402651160732 L 1.3687883402964833 -2.0226602797559785 Q 1.4996271307475155 -2.0401305663395144 1.5822392685906852 -1.988106680662057 Q 1.664851406433855 -1.9360827949846002 1.6795423292427374 -1.8260592666507776 Q 1.6905274336854152 -1.7437894211399012 1.6558791200323917 -1.6821615511377528 Q 1.6212308063793683 -1.6205336811356044 1.5459698377868665 -1.5872803112835356 L 1.7518562661345705 -1.3675969513715347 L 1.6943664945727535 -1.3599206133272537 M 1.425169719725167 -1.6004078196640106 Q 1.536184451016952 -1.615231093128829 1.5881140680679056 -1.672104328248183 Q 1.6400436851188593 -1.7289775633675366 1.6279997754286943 -1.819177032542112 Q 1.6159558657385296 -1.9093765017166873 1.550923533749924 -1.9506323594356076 Q 1.4858912017613186 -1.9918882171545278 1.3748764704695335 -1.9770649436897094 L 1.1766358788770606 -1.950594812502534 L 1.226929128132694 -1.5739376884768352 L 1.425169719725167 -1.6004078196640106 M 2.80722293386617 -1.5947419149737172 L 2.8553610843474604 -1.585592135291089 L 2.806437772575041 -1.3282003919013319 Q 2.753030727102082 -1.2935638866814156 2.6843879967097353 -1.2831992562353434 Q 2.615745266317389 -1.272834625789271 2.5440292462126095 -1.286465930214411 Q 2.441858477844156 -1.305885870765295 2.368416728868914 -1.366668759043638 Q 2.294974979893672 -1.427451647321981 2.2634355922698264 -1.5158966416874782 Q 2.231896204645981 -1.6043416360529754 2.250755954604051 -1.7035651707184924 Q 2.2696157045621215 -1.8027887053840095 2.3314053841979208 -1.8734943309770646 Q 2.39319506383372 -1.9441999565701196 2.4838159909885906 -1.9737989018484852 Q 2.574436918143461 -2.003397847126851 2.677590097746226 -1.9837911763783622 Q 2.753235762788254 -1.9694129511628038 2.8120263975600674 -1.9332997781766583 Q 2.8708170323318805 -1.8971866051905129 2.907231629822816 -1.8424236880880325 L 2.869445643606272 -1.8149970724447715 Q 2.834435677991147 -1.8664392954491067 2.7845355045744307 -1.8957731102876454 Q 2.734635331157715 -1.9251069251261839 2.6697961896931197 -1.937431118168091 Q 2.581379178605035 -1.95423683595251 2.502685156213225 -1.9284783259063656 Q 2.4239911338214153 -1.902719815860221 2.370547794283493 -1.841115761943012 Q 2.3171044547455706 -1.7795117080258036 2.300858927553966 -1.6940419306406551 Q 2.2848001305599657 -1.6095545644898188 2.3124057178527875 -1.532545269270226 Q 2.3400113051456093 -1.4555359740506333 2.4031823410130886 -1.40230374483346 Q 2.466353376880568 -1.349071515616287 2.5547703879686523 -1.332265797831868 Q 2.672659736086098 -1.3098581741193094 2.762220956243448 -1.357980807504513 L 2.80722293386617 -1.5947419149737172 M 3.478306264160521 -0.9632852968980702 L 3.4216909807788336 -1.2451358063664961 Q 3.385884908531963 -1.2557152765919786 3.3575995807111516 -1.2684014986485734 L 3.175113594770433 -1.3502480925620888 L 3.081399244739458 -1.141301638659966 L 3.0348653183245746 -1.1621725201079123 L 3.3213283970218783 -1.8008734709004273 L 3.5503483093774797 -1.6981559955389656 Q 3.670789060098354 -1.6441372435560455 3.71364424422815 -1.5564179002320029 Q 3.7564994283579463 -1.46869855690796 3.711074568735945 -1.3674188347108611 Q 3.677108232261836 -1.291687150545463 3.6152082974688655 -1.257527260723832 Q 3.5533083626758946 -1.223367370902201 3.4718140399292565 -1.2347108871148569 L 3.531227200083329 -0.9395497846631509 L 3.478306264160521 -0.9632852968980702 M 3.3760150643416926 -1.3094608454852352 Q 3.478207216468495 -1.2636267528936664 3.5522976143146017 -1.2846472892095073 Q 3.626388012160709 -1.3056678255253482 3.663628212391358 -1.3886989491283752 Q 3.7008684126220075 -1.4717300727314022 3.667292078763091 -1.541040099456217 Q 3.633715744904174 -1.6103501261810318 3.531523592777371 -1.6561842187726004 L 3.349037606836653 -1.7380308126861157 L 3.193529078400974 -1.3913074393987503 L 3.3760150643416926 -1.3094608454852352 M 4.121795383866089 -0.5732211488615374 L 4.094332600092126 -0.5363186352969496 L 3.7068562076639537 -0.8246778649235545 L 4.124768134659034 -1.3862378539498912 L 4.500211098750928 -1.106833879901752 L 4.472748314976965 -1.0699313663371641 L 4.138219007228418 -1.3188874714185188 L 3.9734423045846445 -1.097472390030992 L 4.2726735558801066 -0.874785034646471 L 4.245807789144709 -0.8386847496376351 L 3.9465765378492463 -1.061372105022156 L 3.7752326477812637 -0.831132509521358 L 4.121795383866089 -0.5732211488615374 M 4.604698863385268 -0.050485635232156156 L 4.5701311727928715 -0.020136421616176292 L 4.251464429825083 -0.38309717283633415 L 4.777494504057196 -0.8449330322099409 L 5.086264764324122 -0.4932443540090426 L 5.0516970737317255 -0.46289514039306273 L 4.776574854647734 -0.7762587703284786 L 4.569168711093359 -0.5941634886325993 L 4.815261247588152 -0.31386460622034484 L 4.781445028530373 -0.28417515811775584 L 4.53535249203558 -0.5644740405300103 L 4.319680161600414 -0.37512133818683147 L 4.604698863385268 -0.050485635232156156 M 5.582113569141178 0.3350150912109786 L 4.963895136393613 0.6633532848637184 L 4.944194844774448 0.6262601788988644 L 5.257422685828967 -0.08019669847464192 L 4.720455818528224 0.20498847544088059 L 4.69653403584781 0.15994684676927223 L 5.314752468595375 -0.16839134688346752 L 5.3349218147769015 -0.1304150717289742 L 5.021224919160021 0.5751586364548928 L 5.558191786460764 0.2899734625393703 L 5.582113569141178 0.3350150912109786" fill="#102036" fill-rule="nonzero"></path></g><g><path d=" M -1.7344165875525128 3.2857260050327777 L -1.84851964829278 2.9127910354607316 L -2.051913228836767 2.887177535241188 L -2.0744412690342044 2.8135467848385023 L -1.3114477866308258 2.914744343158676 L -1.2900900342358528 2.984550119514469 L -1.865837468244947 3.4953484086971405 L -1.8886580803930004 3.420761414782731 L -1.7344165875525128 3.2857260050327777 M -1.684941419515755 3.2423531131792873 L -1.3745459468113332 2.9716971497781484 L -1.7832455949227544 2.921055293240294 L -1.684941419515755 3.2423531131792873 M -0.8383919091746526 3.9163969830730165 L -1.4418449759405698 4.271142520339955 L -1.472758515616689 4.218555895950354 L -1.211150158255377 3.542771117075662 L -1.7008092181454355 3.830621781600836 L -1.7383108892279406 3.766828171685582 L -1.1348578224620232 3.412082634418643 L -1.1039442827859043 3.464669258808244 L -1.3650458608082636 4.141316113492602 L -0.8753868009182049 3.8534654489674276 L -0.8383919091746526 3.9163969830730165 M -0.5503928614357034 5.12008419201495 L -0.5930026023374095 5.167837830413395 L -0.9623471493253846 4.838278115626761 L -0.49630310821297297 4.315972695643767 L -0.13815082022463354 4.635545752406563 L -0.18076056112633987 4.683299390805009 L -0.4836977047164769 4.41299384695981 L -0.6494762279121775 4.598785346353761 L -0.3793697107209716 4.839796693329037 L -0.4213136744210886 4.886804181127506 L -0.6914201916122946 4.64579283415223 L -0.864522264025476 4.839791990145914 L -0.5503928614357034 5.12008419201495 M -0.2740647868751741 5.3616612639034305 Q -0.3230629876680781 5.303899457153137 -0.33593390384164384 5.248796467063188 L -0.28206473542141064 5.214327456434616 Q -0.26853712379915085 5.2663371067295115 -0.22610923443107406 5.31850150266937 Q -0.18368134506299721 5.370665898609227 -0.12590507468866313 5.40459085375484 Q -0.044845829685866034 5.4521870594815205 0.013152613002452573 5.446234694764047 Q 0.07115105569077118 5.440282330046574 0.09899989946702059 5.392854048396001 Q 0.12026628925979277 5.356636087862836 0.11093537857464053 5.322166041361769 Q 0.10160446788948829 5.2876959948607025 0.07653379461509147 5.257319830824267 Q 0.05146312134069464 5.2269436667878315 0.0026506651858253516 5.179727735957983 Q -0.05534674162999764 5.122480021570071 -0.08650902577029412 5.082728769424266 Q -0.1176713099105906 5.0429775172784606 -0.12731842576143992 4.993246408747076 Q -0.13696554161228924 4.943515300215692 -0.10405327169490364 4.887463694628652 Q -0.07721711314688151 4.841760077765373 -0.03104590241082905 4.818426211836919 Q 0.015125308325223352 4.795092345908466 0.07830549512369067 4.802039575292239 Q 0.14148568192215805 4.808986804676014 0.2156462677757809 4.852532269489785 Q 0.2673862113945875 4.882912826336603 0.3086156708964025 4.926256011143308 Q 0.3498451303982174 4.969599195950013 0.37137915512208697 5.0158732251585425 L 0.31994663104821364 5.054092271030862 Q 0.2966879415370506 5.006805556594106 0.26091328975935923 4.968984606180546 Q 0.225138637981668 4.931163655766986 0.18374668308662256 4.906859210289532 Q 0.10441210287111913 4.860275689791079 0.0463384837655102 4.867343558209256 Q -0.011735135340098624 4.874411426627433 -0.040090321730461564 4.922702040671653 Q -0.06135671152323385 4.958920001204818 -0.052278972145138436 4.993821213902708 Q -0.04320123276704302 5.028722426600598 -0.01683706090217607 5.059858104558204 Q 0.009527110962690988 5.09099378251581 0.05747723472391353 5.137703370731544 Q 0.11425631936655656 5.193076067497582 0.14584976970367647 5.233080490950444 Q 0.17744322004079627 5.273084914403307 0.18691234100187903 5.3221316854308105 Q 0.1963814619629618 5.371178456458314 0.16397553465968984 5.426367729651709 Q 0.1371393761116677 5.472071346514988 0.09053699917879188 5.495152041136384 Q 0.04393462224591599 5.51823273575778 -0.019854725639141313 5.51034799756307 Q -0.08364407352419861 5.5024632593683585 -0.15780465937782145 5.458917794554587 Q -0.22506658608227012 5.419423070653724 -0.2740647868751741 5.3616612639034305 M 0.9471886111077207 5.544015701557844 L 1.014634955077485 5.566196564595883 L 0.9312224137935915 5.819832815862461 Q 0.8712414565378996 5.845372682085502 0.8004095565963629 5.846290260786291 Q 0.7295776566548262 5.847207839487079 0.6592814671652129 5.824089756884052 Q 0.5595368739704911 5.791287072109487 0.4941118994111897 5.721347292985481 Q 0.4286869248518883 5.651407513861475 0.40855052804979675 5.558991197532437 Q 0.38841413124770524 5.4665748812034005 0.41996718993562 5.370630082035144 Q 0.4515202486235347 5.274685282866888 0.5225789084566174 5.212259992617453 Q 0.5936375682896999 5.149834702368017 0.6878039428419535 5.132379218883314 Q 0.7819703173942067 5.114923735398612 0.882664859095545 5.148038826694839 Q 0.9586607396248568 5.173031348427841 1.0143409232657612 5.218186272297949 Q 1.0700211069066654 5.263341196168056 1.0980984121278936 5.325209321495351 L 1.0397176743054009 5.355486201309846 Q 0.9864892830325667 5.251660682469312 0.8648958741856677 5.21167264769651 Q 0.7841502511232739 5.185118093355195 0.7073635338577061 5.199341315619427 Q 0.6305768165921383 5.213564537883659 0.5727537911435411 5.264552259228811 Q 0.5149307656949438 5.315539980573964 0.489313430918617 5.393435758116508 Q 0.4636960961422902 5.471331535659052 0.48012525747060325 5.546211991440574 Q 0.4965544187989163 5.621092447222094 0.5492794694256555 5.678434133946569 Q 0.6020045200523947 5.735775820671043 0.6827501431147884 5.762330375012358 Q 0.7853445818293595 5.79607027935191 0.8734606719953655 5.768203549119313 L 0.9471886111077207 5.544015701557844 M 2.096884760845584 5.376434480610229 Q 2.1720914097780204 5.441364904575835 2.1707131167018927 5.553356423487743 Q 2.169334823625765 5.6653479423996504 2.092559135700416 5.72790786362394 Q 2.0157834477750662 5.79046778484823 1.8817935947911761 5.78881875563215 L 1.6938078309033302 5.7865051922543635 L 1.6910881633156138 6.007488457250182 L 1.6170937668916745 6.006577799324884 L 1.6257080986174726 5.306630806125457 L 1.8876882589292578 5.309855027428542 Q 2.021678111913148 5.311504056644623 2.096884760845584 5.376434480610229 M 2.0401415399169056 5.680259194678454 Q 2.095697306659037 5.635439480470376 2.0967187202779534 5.552445765562444 Q 2.0977647462732287 5.467452202102514 2.043328842655451 5.421278807194667 Q 1.9888929390376728 5.37510541228682 1.884900814333758 5.37382556871613 L 1.6989148989979104 5.371536617714703 L 1.6946077331350113 5.721510114314417 L 1.880593648470859 5.723799065315843 Q 1.9845857731747738 5.725078908886533 2.0401415399169056 5.680259194678454 M 2.849086944249857 5.706097183166277 L 2.4669549203097105 5.78404021543605 L 2.422022246010929 5.984055351814175 L 2.3465756669253106 5.999444104339233 L 2.520222141468914 5.249612855404796 L 2.5917494177448903 5.235023518595325 L 3.045191392744092 5.856948253035775 L 2.9687649879560625 5.872536859489729 L 2.849086944249857 5.706097183166277 M 2.810640414550959 5.652703697101853 L 2.5708846192807546 5.317864693050128 L 2.481418978540986 5.7198546172111975 L 2.810640414550959 5.652703697101853 M 3.7526207293148617 5.561469738849044 L 3.5146785494890707 5.421439316940978 Q 3.4912584293044544 5.4352051431253425 3.46478745236327 5.447049440478046 L 3.2931824983997275 5.5238331612473 L 3.3838526367549098 5.72647305369361 L 3.3163060059394733 5.756696433145337 L 3.030409173287998 5.117741817323639 L 3.2695607580669765 5.0107347171026575 Q 3.3918749273814157 4.9560058948522325 3.4873862817987638 4.983384375039485 Q 3.582897636216112 5.010762855226737 3.628641129440348 5.112995593758209 Q 3.662131901265235 5.187844563040179 3.647326979105532 5.256366926395839 Q 3.6325220569458287 5.3248892897515 3.572447650371566 5.37915774905108 L 3.8265569062885154 5.528387391070802 L 3.7526207293148617 5.561469738849044 M 3.5635776236846923 5.283432503548265 Q 3.594993694496443 5.2189807348002235 3.561094498624911 5.143218973209936 Q 3.526378454660089 5.0656316270030155 3.457591583580324 5.046562899540078 Q 3.388804712500559 5.027494172077141 3.2938743124356207 5.0699702729282174 L 3.1240949430887124 5.145937145604181 L 3.267451783461095 5.466327245823346 L 3.4372311528080033 5.3903603731473835 Q 3.5321615528729415 5.347884272296307 3.5635776236846923 5.283432503548265 M 3.8312577661426435 4.764683924769119 L 3.6308683885861655 4.907372737794272 L 3.593746095766613 4.855238915990961 L 4.0548045823396475 4.526938638868046 L 4.091926875159199 4.579072460671357 L 3.8915374976027217 4.7217612736965116 L 4.260440282497023 5.239841127866917 L 4.200160551036944 5.2827637789395245 L 3.8312577661426435 4.764683924769119 M 4.5521307258158865 4.0042870693864066 L 5.069546235630393 4.475754131017858 L 5.028461248831081 4.5208431968731215 L 4.3055295526756625 4.470905608887213 L 4.725375280639434 4.853467453182447 L 4.675534476981252 4.908165664219981 L 4.158118967166745 4.43669860258853 L 4.199203953966057 4.391609536733266 L 4.922809174495235 4.440807959705154 L 4.502963446531464 4.058246115409919 L 4.5521307258158865 4.0042870693864066 M 5.487018787030615 3.67899731590695 L 5.542823108265887 3.710332244205425 L 5.300467022207368 4.141943791259481 L 4.690107258696582 3.799218012994909 L 4.925119220935145 3.3806856037303694 L 4.980923542170417 3.4120205320288446 L 4.7821425907769655 3.7660291948651006 L 4.999256278082945 3.887941650276356 L 5.176494466271195 3.572298458289349 L 5.231426844987166 3.603143778333161 L 5.054188656798916 3.918786970320167 L 5.280893711817208 4.046085116532723 L 5.487018787030615 3.67899731590695 M 5.815228060114378 2.9375969724686652 L 5.5531827780581535 3.024529533411468 Q 5.548127847049759 3.051221248839675 5.539618104201756 3.0789446013905635 L 5.484451495394007 3.2586684041342537 L 5.696678539059429 3.323811952832765 L 5.674964022826591 3.3945543007212393 L 5.005779650908596 3.189146714734941 L 5.082660775949182 2.938680564102777 Q 5.12198165669513 2.8105795557641895 5.205465622891859 2.7567053746746972 Q 5.288949589088588 2.702831193585205 5.396019088595468 2.7356964073430126 Q 5.47440925787729 2.7597584388442646 5.516244261012912 2.81601083890544 Q 5.5580792641485335 2.872263238966615 5.559383871544255 2.953209505091391 L 5.8389966522070775 2.8601627808610117 L 5.815228060114378 2.9375969724686652 M 5.481486524860023 2.8968712110139467 Q 5.453650719318621 2.8307942261412906 5.374304572362631 2.8064387552314862 Q 5.293046470058303 2.781496405504579 5.233410318413281 2.8207236844947405 Q 5.1737741667682595 2.859950963484902 5.143256468278866 2.959372641598433 L 5.088676738288221 3.137184488993786 L 5.424224901921387 3.240181721395487 L 5.478804631912032 3.062369874000134 Q 5.509322330401425 2.9629481958866033 5.481486524860023 2.8968712110139467" fill="#102036" fill-rule="nonzero"></path></g><g clip-path="url(#SvgjsClipPath1001)"><g clip-path="url(#SvgjsClipPath1000904db0b6-7263-4c4f-aef5-848059b3a71a)"><path d=" M 3.4880307080760407 3.1564147293306113 C 3.6584654107817665 2.983978637463528 3.7573470068031782 2.7534432593107834 3.764816699874718 2.511107959880024 L 3.7790514080243405 2.114644977341754 C 3.6587321856715422 2.2160012953362944 3.522210275259915 2.296381689064285 3.3752074657047766 2.352417324582125 C 3.121529851910864 2.4581382267483267 2.8510840287716173 2.517939778399581 2.5764821750858 2.5290331479203174 L 1.551055976898395 2.5290331479203174 C 1.520191869627638 2.529033147920316 1.495171567125708 2.5040128454183814 1.495171567125708 2.473148738147636 L 1.495171567125708 1.9817877012783978 L 0.03532316466763808 2.9645097750168747 L 1.495171567125708 3.9472318487553513 L 1.495171567125708 3.4579796575379116 L 1.495171567125708 3.4579796575379116 C 1.4943922574268362 3.442979509131554 1.500048092483788 3.4283591211268805 1.5107193208111973 3.4177885647648147 C 1.5213905491386281 3.4072180084027486 1.536063888978746 3.4017010061791897 1.551055976898395 3.402622459178179 L 2.8638123951434635 3.4142211102630755 C 3.09817242606768 3.416159780140954 3.3233399635413856 3.323164065762028 3.4880307080760407 3.1564147293306113 Z" fill="#102036" transform="matrix(1,0,0,1,0,0)" fill-rule="evenodd"></path></g><g clip-path="url(#SvgjsClipPath1000904db0b6-7263-4c4f-aef5-848059b3a71a)"><path d=" M 0.2915479113612451 0.7908171194247398 C 0.12081493458533124 0.9631474664716924 0.021563852846188076 1.1936661079303297 0.013707496736699222 1.4361238888753272 L 0 1.8325868714135967 C 0.12019009542943397 1.7310483143868431 0.2567444262525725 1.6506488324008939 0.40384394231957466 1.594814524173225 C 0.6576865265815368 1.489032717148601 0.9283162426623388 1.4292299764579213 1.203096444351475 1.418198700835033 L 2.2279954311259673 1.418198700835033 C 2.2588595383967136 1.4181987008350347 2.2838798408986434 1.443219003336969 2.2838798408986434 1.4740831106077148 L 2.2838798408986434 1.9664985703028524 L 3.7437282433567134 0.9837764965643759 L 2.2838798408986434 0 L 2.2838798408986434 0.4903066140433386 L 2.2838798408986434 0.4903066140433386 C 2.283305110464499 0.5210493455960782 2.258216322573815 0.5456691841803858 2.2274682197130007 0.5456638124030704 L 0.9147118014679428 0.5340651613181742 C 0.680823742988828 0.5318929101184763 0.4560219558434303 0.6245142894245714 0.2915479113612343 0.7908171194247398 Z" fill="#3682ae" transform="matrix(1,0,0,1,0,0)" fill-rule="evenodd"></path></g></g><g><path d=" M -1.141068170166042 1.9736159243776756 A 3.030330268471745 3.030330268471745 0 0 1 4.919592366777448 1.9736159243776756 A 3.030330268471745 3.030330268471745 0 0 1 -1.141068170166042 1.9736159243776756 Z M -1.091068170166042 1.9736159243776756 A 2.980330268471745 2.980330268471745 0 0 0 4.869592366777448 1.9736159243776756 A 2.980330268471745 2.980330268471745 0 0 0 -1.091068170166042 1.9736159243776756 Z" fill="#102036" fill-rule="nonzero"></path></g><g><path d=" M -2.5965864590878915 1.9736159243776759 A 4.485848557393595 4.485848557393595 0 0 1 6.375110655699299 1.9736159243776759 A 4.485848557393595 4.485848557393595 0 0 1 -2.5965864590878915 1.9736159243776759 Z M -2.5465864590878917 1.973615924377675 A 4.435848557393594 4.435848557393594 0 0 0 6.325110655699297 1.973615924377675 A 4.435848557393594 4.435848557393594 0 0 0 -2.5465864590878917 1.973615924377675 Z" fill="#102036" fill-rule="nonzero"></path></g><g transform="matrix(0.1266255593201596,-0.9919505873413538,0.9919505873413538,0.1266255593201596,-3.188094311584984,-0.32615836348132565)"><g clip-path="url(#SvgjsClipPath1002)"><path d=" M -1.7787161971566854 1.8808684722079212 C -1.7438846542995425 1.8808684722079212 -1.7253803971566855 1.8590987579222067 -1.7253803971566855 1.828621157922207 C -1.7253803971566855 1.8122938722079212 -1.7291900971566854 1.7981435579222067 -1.7438846542995425 1.7687544436364926 C -1.7645658828709712 1.7279362293507783 -1.7683755828709713 1.7148744007793497 -1.7721852828709712 1.6773216436364926 C -1.7455173828709711 1.6800428579222069 -1.7226591828709712 1.6860295293507783 -1.7036106828709712 1.694737415065064 C -1.654628825728114 1.717051372207921 -1.6404785114423996 1.7230380436364925 -1.6197972828709712 1.7230380436364925 C -1.5914966542995426 1.7230380436364925 -1.5686384542995426 1.7039895436364925 -1.5686384542995426 1.6697022436364926 C -1.5686384542995426 1.6359591864936354 -1.5909524114423998 1.6163664436364926 -1.6197972828709712 1.6163664436364926 C -1.6361245685852568 1.6163664436364926 -1.6562615542995425 1.622353115065064 -1.6807524828709712 1.633782215065064 L -1.7036106828709712 1.644667072207921 C -1.7248361542995425 1.6544634436364924 -1.7476943542995427 1.660450115065064 -1.7721852828709712 1.6631713293507784 C -1.7683755828709713 1.6305167579222068 -1.7596676971566854 1.6016718864936355 -1.746061625728114 1.5755482293507783 C -1.7324555542995426 1.549968815065064 -1.7253803971566855 1.5281991007793496 -1.7253803971566855 1.5107833293507782 C -1.7253803971566855 1.4824827007793497 -1.7417076828709712 1.4596245007793496 -1.7787161971566854 1.4596245007793496 C -1.8162689542995425 1.4596245007793496 -1.8331404828709712 1.4819384579222068 -1.8331404828709712 1.5107833293507782 C -1.8331404828709712 1.5287433436364926 -1.8287865400138283 1.5401724436364925 -1.8037513685852569 1.5945967293507783 C -1.7950434828709712 1.6136452293507784 -1.7890568114423997 1.6365034293507783 -1.7863355971566854 1.6631713293507784 C -1.8130034971566855 1.660450115065064 -1.8402156400138283 1.6522864722079211 -1.8690605114423997 1.637591915065064 C -1.8973615935495425 1.6234416007793497 -1.9207640364066854 1.6163664436364926 -1.9387240506923997 1.6163664436364926 C -1.9670246792638284 1.6163664436364926 -1.9898828792638283 1.6354149436364924 -1.9898828792638283 1.6697022436364926 C -1.9898828792638283 1.7039895436364925 -1.9675689221209711 1.7230380436364925 -1.9387240506923997 1.7230380436364925 C -1.919131307835257 1.7230380436364925 -1.907157964978114 1.7186841007793496 -1.8549101971566855 1.694737415065064 C -1.8358616971566855 1.6860295293507783 -1.8130034971566855 1.6800428579222069 -1.7863355971566854 1.6773216436364926 C -1.7901452971566854 1.7099762150650641 -1.798853182870971 1.7388210864936355 -1.8124592542995426 1.7649447436364927 C -1.826065325728114 1.7905241579222069 -1.8331404828709712 1.8117496293507782 -1.8331404828709712 1.828621157922207 C -1.8331404828709712 1.858554515065064 -1.8146362257281141 1.8808684722079212 -1.7787161971566854 1.8808684722079212 Z" fill="#102036" transform="matrix(1,0,0,1,0,0)" fill-rule="nonzero"></path></g></g><g transform="matrix(-0.1266255593201596,-0.9919505873413538,-0.9919505873413538,0.1266255593201596,7.895677667659439,6.951841306191326)"><g clip-path="url(#SvgjsClipPath1003)"><path d=" M 5.558342485553806 1.8808684722079212 C 5.593174028410949 1.8808684722079212 5.611678285553806 1.8590987579222067 5.611678285553806 1.828621157922207 C 5.611678285553806 1.8122938722079212 5.607868585553805 1.7981435579222067 5.593174028410949 1.7687544436364926 C 5.5724927998395195 1.7279362293507783 5.56868309983952 1.7148744007793497 5.56487339983952 1.6773216436364926 C 5.59154129983952 1.6800428579222069 5.61439949983952 1.6860295293507783 5.63344799983952 1.694737415065064 C 5.6824298569823775 1.717051372207921 5.696580171268091 1.7230380436364925 5.71726139983952 1.7230380436364925 C 5.745562028410949 1.7230380436364925 5.768420228410949 1.7039895436364925 5.768420228410949 1.6697022436364926 C 5.768420228410949 1.6359591864936354 5.746106271268092 1.6163664436364926 5.71726139983952 1.6163664436364926 C 5.700934114125234 1.6163664436364926 5.680797128410949 1.622353115065064 5.65630619983952 1.633782215065064 L 5.63344799983952 1.644667072207921 C 5.612222528410949 1.6544634436364924 5.589364328410949 1.660450115065064 5.56487339983952 1.6631713293507784 C 5.56868309983952 1.6305167579222068 5.577390985553806 1.6016718864936355 5.590997056982377 1.5755482293507783 C 5.6046031284109485 1.549968815065064 5.611678285553806 1.5281991007793496 5.611678285553806 1.5107833293507782 C 5.611678285553806 1.4824827007793497 5.59535099983952 1.4596245007793496 5.558342485553806 1.4596245007793496 C 5.520789728410948 1.4596245007793496 5.50391819983952 1.4819384579222068 5.50391819983952 1.5107833293507782 C 5.50391819983952 1.5287433436364926 5.508272142696663 1.5401724436364925 5.533307314125234 1.5945967293507783 C 5.54201519983952 1.6136452293507784 5.548001871268092 1.6365034293507783 5.5507230855538054 1.6631713293507784 C 5.524055185553806 1.660450115065064 5.496843042696662 1.6522864722079211 5.467998171268091 1.637591915065064 C 5.439697089160949 1.6234416007793497 5.416294646303806 1.6163664436364926 5.398334632018091 1.6163664436364926 C 5.370034003446663 1.6163664436364926 5.347175803446663 1.6354149436364924 5.347175803446663 1.6697022436364926 C 5.347175803446663 1.7039895436364925 5.36948976058952 1.7230380436364925 5.398334632018091 1.7230380436364925 C 5.417927374875235 1.7230380436364925 5.4299007177323775 1.7186841007793496 5.482148485553806 1.694737415065064 C 5.501196985553806 1.6860295293507783 5.524055185553806 1.6800428579222069 5.5507230855538054 1.6773216436364926 C 5.546913385553806 1.7099762150650641 5.53820549983952 1.7388210864936355 5.524599428410949 1.7649447436364927 C 5.510993356982377 1.7905241579222069 5.50391819983952 1.8117496293507782 5.50391819983952 1.828621157922207 C 5.50391819983952 1.858554515065064 5.522422456982377 1.8808684722079212 5.558342485553806 1.8808684722079212 Z" fill="#102036" transform="matrix(1,0,0,1,0,0)" fill-rule="nonzero"></path></g></g></g><defs><clipPath id="SvgjsClipPath1001"><path d=" M 0 0 h 3.7785241966114063 v 3.9472318487553513 h -3.7785241966114063 Z"></path></clipPath><clipPath id="SvgjsClipPath1000904db0b6-7263-4c4f-aef5-848059b3a71a"><path d=" M 0 0 L 3.7785241966114063 0 L 3.7785241966114063 3.9472318487553513 L 0 3.9472318487553513 Z"></path></clipPath><clipPath id="SvgjsClipPath1002"><path d=" M -2.0967422430495426 1.3299132864936354 h 0.63495 v 0.63495 h -0.63495 Z"></path></clipPath><clipPath id="SvgjsClipPath1003"><path d=" M 5.2403164396609485 1.3299132864936354 h 0.63495 v 0.63495 h -0.63495 Z"></path></clipPath></defs></svg>